<svg version="1.1" xmlns="http://www.w3.org/2000/svg" viewBox="0 0 1656.760792053215 996.3086242675781" width="1656.760792053215" height="996.3086242675781">
  <!-- svg-source:excalidraw -->
  
  <defs>
    <style class="style-fonts">
      @font-face {
        font-family: "Virgil";
        src: url("https://excalidraw.com/Virgil.woff2");
      }
      @font-face {
        font-family: "Cascadia";
        src: url("https://excalidraw.com/Cascadia.woff2");
      }
      @font-face {
        font-family: "Assistant";
        src: url("https://excalidraw.com/Assistant-Regular.woff2");
      }
    </style>
    
  </defs>
  <g stroke-opacity="0.5" fill-opacity="0.5" stroke-linecap="round" transform="translate(761.3665812377852 192.23016357421875) rotate(0 289.800537109375 81.79231262207031)"><path d="M0 0 C0 0, 0 0, 0 0 M0 0 C0 0, 0 0, 0 0 M-0.26 6.4 C2.51 4.27, 4.41 1.22, 4.99 0.36 M-0.26 6.4 C0.67 5.28, 1.81 3.56, 4.99 0.36 M0.13 12.04 C3.68 8.23, 8.71 4.44, 10.63 -0.03 M0.13 12.04 C4.2 7.69, 6.32 4.53, 10.63 -0.03 M-0.13 18.44 C6.47 14.22, 9.47 6.01, 15.62 0.33 M-0.13 18.44 C3.56 14.34, 6.65 9.71, 15.62 0.33 M0.27 24.08 C3.87 15.99, 10.65 9.94, 21.26 -0.07 M0.27 24.08 C8.61 14.89, 16.55 5.05, 21.26 -0.07 M0 30.48 C7.43 22.56, 14.04 13.73, 26.25 0.29 M0 30.48 C10.16 19.69, 18.08 8.67, 26.25 0.29 M-0.26 36.88 C6.48 29.1, 11.1 20.32, 31.89 -0.1 M-0.26 36.88 C12.53 22.3, 23.95 9.47, 31.89 -0.1 M0.14 42.52 C11.83 29.49, 20.78 15.15, 36.88 0.26 M0.14 42.52 C11.97 27.05, 25.85 13.91, 36.88 0.26 M-0.12 48.92 C8.73 38.01, 19.05 27.13, 42.52 -0.14 M-0.12 48.92 C12.86 34.35, 24.94 20.85, 42.52 -0.14 M0.27 54.56 C13.07 38.61, 29.7 20.61, 47.51 0.22 M0.27 54.56 C16.48 38.59, 30.14 20.32, 47.51 0.22 M0.01 60.96 C18.03 40.87, 36.57 17.65, 53.15 -0.17 M0.01 60.96 C17.9 41.82, 34.27 21.61, 53.15 -0.17 M-0.25 67.36 C15.25 46.87, 33.84 31.02, 58.14 0.19 M-0.25 67.36 C19.36 43.65, 40.35 22.54, 58.14 0.19 M0.14 73 C14 53.58, 30.14 36.69, 63.78 -0.21 M0.14 73 C22.71 48.25, 44.11 20.72, 63.78 -0.21 M-0.12 79.4 C21.72 56.58, 41.67 31.59, 68.77 0.15 M-0.12 79.4 C24.22 52.43, 46.27 24.84, 68.77 0.15 M0.28 85.04 C26.79 57.81, 48.97 27.9, 74.41 -0.24 M0.28 85.04 C20.44 60.52, 43.35 35.84, 74.41 -0.24 M0.01 91.44 C17.4 69.83, 37.09 47.53, 79.4 0.12 M0.01 91.44 C29.6 56.2, 59.9 19.93, 79.4 0.12 M-0.25 97.84 C33.42 57.82, 66.08 18.26, 85.04 -0.28 M-0.25 97.84 C21.88 72.61, 44.82 47.28, 85.04 -0.28 M0.15 103.48 C21.77 78.43, 44.88 52.5, 90.03 0.08 M0.15 103.48 C33.22 65.19, 67.65 26.01, 90.03 0.08 M-0.11 109.88 C19.64 89.2, 38.49 63.96, 95.67 -0.31 M-0.11 109.88 C27 77.48, 53.88 45.83, 95.67 -0.31 M0.28 115.52 C22.96 88.62, 49.48 61.97, 100.66 0.05 M0.28 115.52 C38.49 69.85, 76.92 26.49, 100.66 0.05 M0.02 121.92 C33.82 83.68, 66.68 42.05, 106.3 -0.34 M0.02 121.92 C41.39 74.76, 82.98 27.32, 106.3 -0.34 M-0.24 128.32 C22.83 98.11, 50.03 69.04, 111.29 0.02 M-0.24 128.32 C31.72 90.51, 66 50.94, 111.29 0.02 M0.15 133.96 C31.17 96.79, 65.48 59.57, 116.27 0.38 M0.15 133.96 C32.17 97.52, 65.32 59.09, 116.27 0.38 M-0.11 140.36 C24.93 111.94, 47.64 82.25, 121.92 -0.02 M-0.11 140.36 C48.18 86.08, 93.83 32.13, 121.92 -0.02 M0.29 146 C47.62 94.35, 96.21 36.86, 126.91 0.34 M0.29 146 C33.81 106.22, 68.21 69.45, 126.91 0.34 M0.02 152.4 C32.55 118.68, 60.89 82.72, 132.55 -0.05 M0.02 152.4 C40.46 103.67, 82.8 56.23, 132.55 -0.05 M-0.24 158.8 C45.46 109.57, 87.37 55.51, 137.54 0.31 M-0.24 158.8 C45.56 104.13, 92.78 50.8, 137.54 0.31 M0.81 163.68 C51.71 106.13, 100.6 48.21, 143.18 -0.09 M0.81 163.68 C49.01 109.59, 96.57 55.82, 143.18 -0.09 M5.8 164.04 C58.22 102.29, 115.42 38.45, 148.17 0.27 M5.8 164.04 C49.47 111.14, 94.97 59.42, 148.17 0.27 M10.79 164.4 C53.18 116.76, 96.56 65.79, 153.81 -0.12 M10.79 164.4 C57.85 109.85, 105.24 55.19, 153.81 -0.12 M16.43 164.01 C49.52 128.47, 80.13 91.93, 158.8 0.24 M16.43 164.01 C58.63 118.02, 98.3 71.37, 158.8 0.24 M21.42 164.37 C72.17 104.48, 125.59 45.14, 164.44 -0.16 M21.42 164.37 C67.7 110.86, 113.43 57.23, 164.44 -0.16 M27.06 163.97 C60.05 124.55, 93.13 87.19, 169.43 0.2 M27.06 163.97 C72.96 112.25, 118.7 59.15, 169.43 0.2 M32.05 164.33 C80.64 108.94, 127.87 55.99, 175.07 -0.19 M32.05 164.33 C60.79 130.38, 88.45 96.97, 175.07 -0.19 M37.69 163.94 C80.55 119.54, 118.56 70.04, 180.06 0.17 M37.69 163.94 C70.73 126.42, 102.42 89.9, 180.06 0.17 M42.68 164.3 C97.72 101.91, 150.92 38.84, 185.7 -0.23 M42.68 164.3 C94.97 102.59, 147.91 41.22, 185.7 -0.23 M48.32 163.91 C93.84 112.55, 140.66 60.42, 190.69 0.13 M48.32 163.91 C99.14 102.06, 153.32 41.8, 190.69 0.13 M53.31 164.27 C99.98 110.84, 149.53 53.92, 196.33 -0.26 M53.31 164.27 C95.51 115.86, 139.02 65.87, 196.33 -0.26 M58.95 163.87 C109.33 108.53, 156.27 52.26, 201.32 0.1 M58.95 163.87 C91.75 126.56, 124.57 88.31, 201.32 0.1 M63.94 164.23 C98.29 125.2, 130.65 84.3, 206.96 -0.3 M63.94 164.23 C120.56 97.25, 177.5 31.25, 206.96 -0.3 M69.58 163.84 C107.99 117.74, 150.7 71.12, 211.95 0.06 M69.58 163.84 C108.66 118.34, 146.68 74.01, 211.95 0.06 M74.57 164.2 C129.34 100.89, 183.6 37.85, 217.59 -0.33 M74.57 164.2 C119.71 111.75, 166.48 57.66, 217.59 -0.33 M80.21 163.8 C120.8 117.62, 159.78 72.97, 222.58 0.03 M80.21 163.8 C120.67 118.08, 159.28 73.73, 222.58 0.03 M85.2 164.16 C118.27 125.84, 154.02 83.32, 228.22 -0.36 M85.2 164.16 C122.84 120.41, 162.61 74.73, 228.22 -0.36 M90.84 163.77 C124.65 123.63, 157.24 86.51, 233.21 0 M90.84 163.77 C144.92 100.74, 199.8 38.36, 233.21 0 M95.83 164.13 C125.46 132.44, 154.59 100.67, 238.19 0.36 M95.83 164.13 C137.49 115.51, 178.29 66.87, 238.19 0.36 M101.47 163.73 C138.84 120.88, 177.15 80.3, 243.84 -0.04 M101.47 163.73 C138.39 121.59, 175.83 79.6, 243.84 -0.04 M106.46 164.09 C159.21 102.98, 213.76 39.14, 248.82 0.32 M106.46 164.09 C162.09 100.91, 216.92 39.72, 248.82 0.32 M112.1 163.7 C165.92 100.79, 222.42 34.65, 254.47 -0.07 M112.1 163.7 C163.54 105.43, 212.38 47.97, 254.47 -0.07 M117.09 164.06 C147.12 130.27, 178.99 95.2, 259.45 0.29 M117.09 164.06 C169.19 103.71, 220.01 44.2, 259.45 0.29 M122.73 163.66 C167.06 112.2, 211.43 62.73, 265.1 -0.11 M122.73 163.66 C154.78 129.83, 183.26 96.24, 265.1 -0.11 M127.72 164.02 C170.4 116.19, 215.08 64.46, 270.08 0.25 M127.72 164.02 C158.94 127.74, 191.9 88.71, 270.08 0.25 M132.71 164.38 C161.7 130.05, 192.09 93.36, 275.73 -0.14 M132.71 164.38 C186.42 103.63, 241.1 41.23, 275.73 -0.14 M138.35 163.99 C182.45 112.4, 230.61 61.33, 280.71 0.22 M138.35 163.99 C167.07 131.98, 195.66 97.96, 280.71 0.22 M143.34 164.35 C193.46 107.84, 242.94 51.27, 286.36 -0.18 M143.34 164.35 C186.14 115.38, 227.26 67.87, 286.36 -0.18 M148.98 163.96 C199.36 109.41, 246.58 53.35, 291.34 0.18 M148.98 163.96 C185.47 122.32, 221.69 79.6, 291.34 0.18 M153.97 164.32 C191.48 120.74, 228.37 79.4, 296.99 -0.21 M153.97 164.32 C208.72 101, 263.79 38.64, 296.99 -0.21 M159.61 163.92 C200.19 118.41, 239.36 70.24, 301.97 0.15 M159.61 163.92 C186.9 130.29, 217.92 97.05, 301.97 0.15 M164.6 164.28 C214.32 106.15, 266.78 47.54, 307.62 -0.25 M164.6 164.28 C218.76 102.68, 273.36 41.45, 307.62 -0.25 M170.24 163.89 C210.23 116.74, 252.84 68.86, 312.6 0.11 M170.24 163.89 C201.88 129.35, 232.66 93.45, 312.6 0.11 M175.23 164.25 C225.29 106.57, 274.08 48.7, 318.25 -0.28 M175.23 164.25 C203.3 132.73, 231.17 100.04, 318.25 -0.28 M180.87 163.85 C228.85 104.95, 279.98 49.84, 323.23 0.08 M180.87 163.85 C224.49 116.12, 268.41 66.96, 323.23 0.08 M185.86 164.21 C214.05 131.44, 245.46 98.95, 328.88 -0.31 M185.86 164.21 C226.2 120.63, 264.02 75.09, 328.88 -0.31 M191.5 163.82 C225.07 122.67, 258.12 86.36, 333.86 0.05 M191.5 163.82 C221.18 130.65, 250.25 96.96, 333.86 0.05 M196.49 164.18 C249.13 101.85, 305.45 36.24, 339.51 -0.35 M196.49 164.18 C223.87 133, 253.12 99.89, 339.51 -0.35 M202.13 163.78 C235.94 128.01, 267.03 88.91, 344.49 0.01 M202.13 163.78 C250.76 108.61, 296.65 55.82, 344.49 0.01 M207.12 164.14 C235.87 127.9, 267.93 91.55, 349.48 0.37 M207.12 164.14 C248.91 114.2, 292.07 63.9, 349.48 0.37 M212.76 163.75 C263.73 106.72, 312.51 50.03, 355.12 -0.02 M212.76 163.75 C244.07 127.33, 275.13 90.14, 355.12 -0.02 M217.75 164.11 C266.88 109.71, 313.19 53.68, 360.11 0.34 M217.75 164.11 C256.18 118.86, 294.77 73.89, 360.11 0.34 M223.39 163.71 C269.27 111.97, 315.92 62.03, 365.75 -0.06 M223.39 163.71 C263.69 119.34, 302.27 75.04, 365.75 -0.06 M228.38 164.07 C259.55 126.96, 291.94 94.96, 370.74 0.3 M228.38 164.07 C274.48 112.06, 321.4 58.98, 370.74 0.3 M234.02 163.68 C268.18 125.81, 303.08 84.86, 376.38 -0.09 M234.02 163.68 C266.43 128.81, 296.03 93.6, 376.38 -0.09 M239.01 164.04 C273.96 120.95, 311.86 80.26, 381.37 0.27 M239.01 164.04 C273.08 124.55, 306.86 84.86, 381.37 0.27 M243.99 164.4 C285.41 115.31, 323.34 68.46, 387.01 -0.13 M243.99 164.4 C275.9 126.89, 306.99 91.08, 387.01 -0.13 M249.64 164.01 C289.82 115.74, 328.66 72.37, 392 0.23 M249.64 164.01 C294.27 111.56, 340.48 58.41, 392 0.23 M254.62 164.37 C286.24 127.28, 315.48 92.05, 397.64 -0.16 M254.62 164.37 C289.02 126.65, 320.97 89.44, 397.64 -0.16 M260.27 163.97 C298.59 120.85, 337.84 78.29, 402.63 0.2 M260.27 163.97 C292.85 123.37, 327.99 83.66, 402.63 0.2 M265.25 164.33 C302.76 119.96, 342.79 74.7, 408.27 -0.2 M265.25 164.33 C295.52 129.85, 323.92 96.26, 408.27 -0.2 M270.9 163.94 C327.8 103.53, 381.88 39.92, 413.26 0.16 M270.9 163.94 C326.84 99.55, 382.99 36.1, 413.26 0.16 M275.88 164.3 C313.19 118.22, 353.56 75.8, 418.9 -0.23 M275.88 164.3 C314.45 120.71, 352.18 79.1, 418.9 -0.23 M281.53 163.9 C332.84 105.3, 384.24 44.37, 423.89 0.13 M281.53 163.9 C329.14 107.73, 376.33 52.39, 423.89 0.13 M286.51 164.26 C328.53 113.86, 371.48 66.07, 429.53 -0.26 M286.51 164.26 C338.09 104.98, 390.18 45.13, 429.53 -0.26 M292.16 163.87 C342.27 106.05, 391.35 47.61, 434.52 0.1 M292.16 163.87 C342.66 103.53, 395.3 44.64, 434.52 0.1 M297.14 164.23 C332.81 123.01, 367.85 81.17, 440.16 -0.3 M297.14 164.23 C328.62 128.76, 359.7 92.06, 440.16 -0.3 M302.79 163.83 C333.66 129.22, 366.31 90.84, 445.15 0.06 M302.79 163.83 C349.09 110.39, 394.85 56.81, 445.15 0.06 M307.77 164.19 C344.69 120.28, 380.74 77.06, 450.79 -0.33 M307.77 164.19 C361.59 101.93, 415.52 40.06, 450.79 -0.33 M313.42 163.8 C356.49 116.23, 397.41 70.67, 455.78 0.03 M313.42 163.8 C369.42 97.78, 425.62 33.66, 455.78 0.03 M318.4 164.16 C358.7 119.55, 398.71 72.16, 461.42 -0.37 M318.4 164.16 C366.28 108.81, 415.7 53.42, 461.42 -0.37 M324.05 163.76 C380.78 98.2, 436.14 33.9, 466.41 -0.01 M324.05 163.76 C369.14 110.43, 415.12 57.49, 466.41 -0.01 M329.03 164.12 C373.33 110.41, 417.63 59.01, 471.4 0.35 M329.03 164.12 C361.84 124.84, 395.54 86.29, 471.4 0.35 M334.68 163.73 C363 129.46, 391.86 96.76, 477.04 -0.04 M334.68 163.73 C384.99 104.62, 438.31 44.15, 477.04 -0.04 M339.66 164.09 C394.65 103.03, 444.7 43.88, 482.03 0.32 M339.66 164.09 C392.47 103.54, 445.71 42.69, 482.03 0.32 M345.31 163.69 C386.51 110.86, 432.25 63.59, 487.67 -0.08 M345.31 163.69 C397.54 104.44, 449.84 44.82, 487.67 -0.08 M350.29 164.05 C393.33 111.55, 440.16 58.19, 492.66 0.28 M350.29 164.05 C390.34 119.13, 428.49 74.66, 492.66 0.28 M355.94 163.66 C403.71 107.89, 451.56 52.73, 498.3 -0.11 M355.94 163.66 C394.88 117.75, 432.81 73.22, 498.3 -0.11 M360.92 164.02 C390.63 131.42, 422.3 96.35, 503.29 0.25 M360.92 164.02 C392.73 127.68, 423.26 93.38, 503.29 0.25 M365.91 164.38 C401 123.96, 438.22 81.05, 508.93 -0.15 M365.91 164.38 C398.93 126.75, 430.84 88.27, 508.93 -0.15 M371.55 163.99 C425.46 103.89, 479.94 39.71, 513.92 0.21 M371.55 163.99 C416.03 111.92, 463.42 58.08, 513.92 0.21 M376.54 164.35 C413.1 126.89, 446.37 86.73, 519.56 -0.18 M376.54 164.35 C411.68 121.42, 449.23 79.15, 519.56 -0.18 M382.18 163.95 C430.84 108.52, 478.35 53.61, 524.55 0.18 M382.18 163.95 C420.49 118.81, 458.49 74.97, 524.55 0.18 M387.17 164.31 C418.85 130.28, 449.32 94.75, 530.19 -0.22 M387.17 164.31 C442.4 97.76, 499.03 33.8, 530.19 -0.22 M392.81 163.92 C432.13 116.07, 474.54 70.2, 535.18 0.14 M392.81 163.92 C446.7 102.87, 499.3 43, 535.18 0.14 M397.8 164.28 C442.31 114.14, 486.94 59.89, 540.82 -0.25 M397.8 164.28 C450.01 106.45, 501.18 46.55, 540.82 -0.25 M403.44 163.88 C458.86 98.2, 515.45 33.67, 545.81 0.11 M403.44 163.88 C443.2 117.36, 483.18 71.85, 545.81 0.11 M408.43 164.24 C438.63 127.22, 472.51 90.84, 551.45 -0.28 M408.43 164.24 C449.12 117.72, 489.18 70.99, 551.45 -0.28 M414.07 163.85 C461.49 111.25, 507.96 59.03, 556.44 0.08 M414.07 163.85 C457.2 112.91, 501.93 62.46, 556.44 0.08 M419.06 164.21 C453.53 125.34, 488.58 83.25, 562.08 -0.32 M419.06 164.21 C472.78 104.18, 527.39 41.76, 562.08 -0.32 M424.7 163.81 C466.71 116.2, 506.36 68.33, 567.07 0.04 M424.7 163.81 C467.8 113.57, 511.41 64.97, 567.07 0.04 M429.69 164.17 C463.18 126.09, 493.98 90.2, 572.71 -0.35 M429.69 164.17 C464.46 125.01, 499.25 86.08, 572.71 -0.35 M435.33 163.78 C466.14 129.48, 497.36 92.42, 577.7 0.01 M435.33 163.78 C486.6 104.81, 538.88 45.07, 577.7 0.01 M440.32 164.14 C470.34 132.39, 498.73 96.2, 581.37 1.88 M440.32 164.14 C494.52 100.83, 549.83 37.07, 581.37 1.88 M445.97 163.74 C500.15 101.31, 553.07 41.12, 581.77 7.52 M445.97 163.74 C490.82 113.4, 535.78 64, 581.77 7.52 M450.95 164.1 C477.86 133.14, 504.67 102.68, 581.51 13.92 M450.95 164.1 C492.24 116.81, 535.4 67.02, 581.51 13.92 M456.6 163.71 C508.39 109.25, 555.02 52.39, 581.25 20.31 M456.6 163.71 C491.81 123.61, 526.6 83.33, 581.25 20.31 M461.58 164.07 C488.76 133.74, 515.84 103.44, 581.64 25.96 M461.58 164.07 C491.98 129.96, 521.22 96.99, 581.64 25.96 M467.23 163.68 C508.16 116.66, 550.81 67.94, 581.38 32.36 M467.23 163.68 C497.17 130.61, 524.25 96.9, 581.38 32.36 M472.21 164.04 C497.38 133.03, 523.56 105.56, 581.77 38 M472.21 164.04 C508.23 121.93, 544.46 80.31, 581.77 38 M477.2 164.4 C512.13 123.56, 545.75 83.39, 581.51 44.4 M477.2 164.4 C510.91 124.03, 544.43 85.48, 581.51 44.4 M482.84 164 C505.71 139.85, 526.67 113.98, 581.25 50.79 M482.84 164 C512.47 131.24, 541.5 97.76, 581.25 50.79 M487.83 164.36 C518.08 126.38, 549.69 91.76, 581.65 56.44 M487.83 164.36 C518.81 129.41, 549.59 94.55, 581.65 56.44 M493.47 163.97 C516.57 134.58, 544.41 107.7, 581.38 62.84 M493.47 163.97 C526.73 124.33, 562.11 85.19, 581.38 62.84 M498.46 164.33 C516.42 141.55, 538.36 122.35, 581.78 68.48 M498.46 164.33 C522.35 134.77, 548.78 106.98, 581.78 68.48 M504.1 163.93 C532.17 130.99, 559.98 97.31, 581.52 74.88 M504.1 163.93 C519.88 145.99, 536.26 127.51, 581.52 74.88 M509.09 164.29 C530.46 138.2, 555.18 113.55, 581.26 81.27 M509.09 164.29 C530.03 139.89, 551.39 115.11, 581.26 81.27 M514.73 163.9 C538.63 137.63, 561.41 111.65, 581.65 86.92 M514.73 163.9 C537.19 139.01, 557.41 113.9, 581.65 86.92 M519.72 164.26 C538.94 142.15, 558.81 119.11, 581.39 93.31 M519.72 164.26 C540.77 139.96, 562.51 114.98, 581.39 93.31 M525.36 163.86 C542.25 142.17, 562.13 122.63, 581.78 98.96 M525.36 163.86 C547.61 137.1, 570.04 112.36, 581.78 98.96 M530.35 164.22 C550.93 142.92, 566.81 123.49, 581.52 105.36 M530.35 164.22 C543.57 150.5, 555.77 134.95, 581.52 105.36 M535.99 163.83 C553.48 146.26, 567.03 126, 581.26 111.75 M535.99 163.83 C549.28 147.86, 563.04 132.15, 581.26 111.75 M540.98 164.19 C551.2 150.33, 565.13 137.54, 581.66 117.4 M540.98 164.19 C553.5 151.32, 563.94 136.59, 581.66 117.4 M546.62 163.79 C554.55 155.1, 565.12 141.76, 581.39 123.79 M546.62 163.79 C559.6 148.92, 572.86 132.71, 581.39 123.79 M551.61 164.15 C559.17 154.59, 568.79 147.08, 581.79 129.44 M551.61 164.15 C557.8 157.56, 564.26 150.13, 581.79 129.44 M557.25 163.76 C564.08 156.85, 570.01 150.68, 581.53 135.84 M557.25 163.76 C562.57 157.69, 567.6 151.51, 581.53 135.84 M562.24 164.12 C568.21 157.73, 575.28 146.87, 581.27 142.23 M562.24 164.12 C568.06 158.1, 574.03 151.25, 581.27 142.23 M567.88 163.72 C573.51 160.02, 576.93 154.55, 581.66 147.88 M567.88 163.72 C571.32 159.89, 574.29 155.83, 581.66 147.88 M572.87 164.09 C573.51 161.88, 576.4 159.67, 581.4 154.27 M572.87 164.09 C575.1 161.01, 578.33 157.99, 581.4 154.27 M578.51 163.69 C579.38 162.67, 580.12 161.12, 581.79 159.92 M578.51 163.69 C579.55 162.7, 580.44 161.66, 581.79 159.92" stroke="#a5d8ff" stroke-width="0.5" fill="none"></path><path d="M0 0 C229.38 -1.16, 459.19 -2.02, 579.6 0 M0 0 C209.18 1.56, 417.92 2, 579.6 0 M579.6 0 C577.22 55.65, 580.28 116.83, 579.6 163.58 M579.6 0 C578.09 64.11, 578.83 127.7, 579.6 163.58 M579.6 163.58 C361.62 163.99, 142.92 164.7, 0 163.58 M579.6 163.58 C420.76 161.72, 261.58 161.56, 0 163.58 M0 163.58 C-0.44 102.73, 2.25 43.24, 0 0 M0 163.58 C-0.23 98.42, 0.73 33.4, 0 0" stroke="#1e1e1e" stroke-width="1" fill="none"></path></g><g transform="translate(255.6393962517875 297.44907898565043) rotate(0 44.83995056152344 12.5)"><text x="0" y="0" font-family="Virgil, Segoe UI Emoji" font-size="20px" fill="#000000" text-anchor="start" style="white-space: pre;" direction="ltr" dominant-baseline="text-before-edge">Customer</text></g><g stroke-linecap="round"><g transform="translate(252.8521756032801 287.7961529756717) rotate(0 24.63471035906872 -21.9365021053045)" fill-rule="evenodd"><path d="M13.47 -38.64 C13.47 -38.64, 13.47 -38.64, 13.47 -38.64 M13.47 -38.64 C13.47 -38.64, 13.47 -38.64, 13.47 -38.64 M3.11 -14.53 C10.23 -22.73, 17.36 -30.93, 28.04 -43.2 M3.11 -14.53 C10.58 -23.13, 18.06 -31.73, 28.04 -43.2 M0.61 0.53 C9.55 -9.75, 18.49 -20.03, 35.39 -39.47 M0.61 0.53 C11.26 -11.71, 21.9 -23.96, 35.39 -39.47 M11.24 0.5 C21.19 -10.94, 31.14 -22.38, 40.77 -33.46 M11.24 0.5 C18.18 -7.48, 25.11 -15.46, 40.77 -33.46 M21.87 0.47 C29.21 -7.97, 36.54 -16.41, 44.84 -25.95 M21.87 0.47 C26.88 -5.3, 31.89 -11.06, 44.84 -25.95 M32.5 0.43 C38.26 -6.19, 44.01 -12.81, 48.91 -18.44 M32.5 0.43 C38.48 -6.45, 44.46 -13.33, 48.91 -18.44 M44.45 -1.11 C47.31 -4.4, 50.17 -7.69, 51.66 -9.41 M44.45 -1.11 C46.21 -3.14, 47.97 -5.17, 51.66 -9.41 M0 0 C0 0, 0 0, 0 0 M0 0 C0 0, 0 0, 0 0 M12.04 -0.13 C8.08 -3.58, 4.12 -7.02, 1.47 -9.32 M12.04 -0.13 C7.87 -3.76, 3.7 -7.39, 1.47 -9.32 M24.84 0.39 C17.81 -5.72, 10.78 -11.83, 2.95 -18.64 M24.84 0.39 C18.89 -4.78, 12.95 -9.94, 2.95 -18.64 M36.12 -0.4 C25.66 -9.49, 15.2 -18.59, 5.18 -27.3 M36.12 -0.4 C24.95 -10.11, 13.79 -19.82, 5.18 -27.3 M46.65 -1.84 C33.06 -13.66, 19.47 -25.47, 9.67 -33.99 M46.65 -1.84 C35.38 -11.64, 24.11 -21.44, 9.67 -33.99 M51.9 -7.88 C42.16 -16.35, 32.43 -24.81, 14.92 -40.03 M51.9 -7.88 C44.05 -14.71, 36.19 -21.54, 14.92 -40.03 M47.34 -22.45 C38.45 -30.18, 29.55 -37.91, 22.43 -44.1 M47.34 -22.45 C41.24 -27.75, 35.14 -33.05, 22.43 -44.1" stroke="#ced4da" stroke-width="1" fill="none"></path><path d="M0 0 C0.92 -4.85, 1.58 -21.76, 5.52 -29.07 C9.46 -36.38, 17.61 -43.34, 23.65 -43.87 C29.69 -44.4, 37.51 -39.05, 41.78 -32.24 C46.05 -25.43, 56.23 -8.39, 49.27 -3.02 C42.31 2.36, 8.21 -0.5, 0 0 M0 0 C0.92 -4.85, 1.58 -21.76, 5.52 -29.07 C9.46 -36.38, 17.61 -43.34, 23.65 -43.87 C29.69 -44.4, 37.51 -39.05, 41.78 -32.24 C46.05 -25.43, 56.23 -8.39, 49.27 -3.02 C42.31 2.36, 8.21 -0.5, 0 0" stroke="#000000" stroke-width="2" fill="none"></path></g></g><mask></mask><g stroke-linecap="round" transform="translate(265.3060464395958 221.10510518981528) rotate(0 12.612971703843186 11.03635024086293)"><path d="M2.98 3.91 C2.98 3.91, 2.98 3.91, 2.98 3.91 M2.98 3.91 C2.98 3.91, 2.98 3.91, 2.98 3.91 M2.45 16.71 C6.36 12.21, 10.27 7.72, 16.23 0.86 M2.45 16.71 C5.98 12.65, 9.51 8.59, 16.23 0.86 M8.49 21.96 C12.75 17.06, 17.01 12.16, 22.92 5.35 M8.49 21.96 C11.95 17.97, 15.41 13.99, 22.92 5.35 M4.36 19.37 C4.36 19.37, 4.36 19.37, 4.36 19.37 M4.36 19.37 C4.36 19.37, 4.36 19.37, 4.36 19.37 M17.91 20.55 C13.96 17.11, 10.01 13.68, 1.31 6.11 M17.91 20.55 C13.71 16.89, 9.51 13.24, 1.31 6.11 M23.92 15.17 C19.47 11.3, 15.03 7.44, 7.31 0.73 M23.92 15.17 C17.49 9.58, 11.06 3.99, 7.31 0.73" stroke="#ced4da" stroke-width="1" fill="none"></path><path d="M25.23 11.04 C25.23 11.68, 25.16 12.32, 25.03 12.95 C24.91 13.58, 24.71 14.21, 24.47 14.81 C24.22 15.41, 23.9 16, 23.54 16.55 C23.17 17.11, 22.74 17.64, 22.28 18.13 C21.81 18.62, 21.28 19.08, 20.72 19.49 C20.16 19.9, 19.55 20.27, 18.92 20.59 C18.29 20.91, 17.61 21.19, 16.93 21.41 C16.24 21.63, 15.52 21.79, 14.8 21.91 C14.08 22.02, 13.34 22.07, 12.61 22.07 C11.88 22.07, 11.14 22.02, 10.42 21.91 C9.7 21.79, 8.99 21.63, 8.3 21.41 C7.61 21.19, 6.94 20.91, 6.31 20.59 C5.67 20.27, 5.06 19.9, 4.51 19.49 C3.95 19.08, 3.42 18.62, 2.95 18.13 C2.48 17.64, 2.05 17.11, 1.69 16.55 C1.32 16, 1.01 15.41, 0.76 14.81 C0.51 14.21, 0.32 13.58, 0.19 12.95 C0.06 12.32, 0 11.68, 0 11.04 C0 10.4, 0.06 9.75, 0.19 9.12 C0.32 8.49, 0.51 7.86, 0.76 7.26 C1.01 6.66, 1.32 6.07, 1.69 5.52 C2.05 4.96, 2.48 4.43, 2.95 3.94 C3.42 3.45, 3.95 2.99, 4.51 2.58 C5.06 2.17, 5.67 1.8, 6.31 1.48 C6.94 1.16, 7.61 0.88, 8.3 0.67 C8.99 0.45, 9.7 0.28, 10.42 0.17 C11.14 0.06, 11.88 0, 12.61 0 C13.34 0, 14.08 0.06, 14.8 0.17 C15.52 0.28, 16.24 0.45, 16.93 0.67 C17.61 0.88, 18.29 1.16, 18.92 1.48 C19.55 1.8, 20.16 2.17, 20.72 2.58 C21.28 2.99, 21.81 3.45, 22.28 3.94 C22.74 4.43, 23.17 4.96, 23.54 5.52 C23.9 6.07, 24.22 6.66, 24.47 7.26 C24.71 7.86, 24.91 8.49, 25.03 9.12 C25.16 9.75, 25.19 10.72, 25.23 11.04 C25.26 11.36, 25.26 10.72, 25.23 11.04" stroke="#000000" stroke-width="2" fill="none"></path></g><g stroke-linecap="round" transform="translate(404.0318695717092 201.6741396586758) rotate(0 150.67855834960932 68.7054443359375)"><path d="M0 0 C0 0, 0 0, 0 0 M0 0 C0 0, 0 0, 0 0 M-0.26 6.4 C1.45 4.96, 4.27 1.56, 4.99 0.36 M-0.26 6.4 C1.3 4.62, 2.36 3.09, 4.99 0.36 M0.13 12.04 C4.48 9.09, 5 4.32, 10.63 -0.03 M0.13 12.04 C3.72 8.12, 6.48 5.19, 10.63 -0.03 M-0.13 18.44 C6.58 13.74, 11.67 6.95, 15.62 0.33 M-0.13 18.44 C4.74 12.19, 10.69 7.58, 15.62 0.33 M0.27 24.08 C8.55 17.79, 13.86 7.05, 21.26 -0.07 M0.27 24.08 C7.11 15.97, 14.53 8.76, 21.26 -0.07 M0 30.48 C5.52 23.03, 13.62 18.31, 26.25 0.29 M0 30.48 C10.43 18.99, 18.23 9.14, 26.25 0.29 M-0.26 36.88 C11.94 21.25, 27.33 7.5, 31.89 -0.1 M-0.26 36.88 C8.77 24.7, 18.59 13.89, 31.89 -0.1 M0.14 42.52 C8.37 34.91, 13.97 23.36, 36.88 0.26 M0.14 42.52 C13.33 27.14, 27.49 11.83, 36.88 0.26 M-0.12 48.92 C8.02 39.23, 18.67 27, 42.52 -0.14 M-0.12 48.92 C14.23 32.26, 27.13 16.96, 42.52 -0.14 M0.27 54.56 C19.71 32.23, 36.87 13.2, 47.51 0.22 M0.27 54.56 C14.64 38.88, 28.21 23.49, 47.51 0.22 M0.01 60.96 C22.33 35.53, 41.29 14.42, 53.15 -0.17 M0.01 60.96 C19.54 40.13, 36.27 19.19, 53.15 -0.17 M-0.25 67.36 C13.33 54.13, 23.47 40.05, 58.14 0.19 M-0.25 67.36 C22.66 42.24, 43.26 17.4, 58.14 0.19 M0.14 73 C21.6 46.58, 44.78 24.15, 63.78 -0.21 M0.14 73 C16.85 54.34, 32.64 36.88, 63.78 -0.21 M-0.12 79.4 C19.33 55.86, 40.65 34.72, 68.77 0.15 M-0.12 79.4 C18.23 58.87, 37.09 38.14, 68.77 0.15 M0.28 85.04 C26.34 57.66, 51.31 26.58, 74.41 -0.24 M0.28 85.04 C26.95 55.11, 54.28 23.44, 74.41 -0.24 M0.01 91.44 C19.31 69.58, 38.66 48.66, 79.4 0.12 M0.01 91.44 C24.72 62.61, 50.15 32.87, 79.4 0.12 M-0.25 97.84 C19.25 74.45, 40.37 53.01, 85.04 -0.28 M-0.25 97.84 C30.57 60.64, 62.54 23.12, 85.04 -0.28 M0.15 103.48 C21.58 80.19, 41.21 58.62, 90.03 0.08 M0.15 103.48 C24.68 76.26, 48.4 49.37, 90.03 0.08 M-0.11 109.88 C33.88 70.89, 64.43 34.92, 95.67 -0.31 M-0.11 109.88 C18.41 88.35, 38.24 66.54, 95.67 -0.31 M0.28 115.52 C23.52 87.72, 45.55 61.52, 100.66 0.05 M0.28 115.52 C34.24 76.99, 68.7 38.71, 100.66 0.05 M0.02 121.92 C20.32 99.12, 43.07 74.4, 106.3 -0.34 M0.02 121.92 C33.39 85.17, 66.44 45.4, 106.3 -0.34 M-0.24 128.32 C38.45 79.54, 81.97 34.48, 111.29 0.02 M-0.24 128.32 C40.21 81.55, 80.23 35.08, 111.29 0.02 M0.15 133.96 C48.13 81.96, 91.46 28.21, 116.27 0.38 M0.15 133.96 C27.63 103.93, 53.77 72.88, 116.27 0.38 M1.2 138.85 C52.01 82.57, 98.7 26.7, 121.92 -0.02 M1.2 138.85 C34.88 100.79, 67.46 62.49, 121.92 -0.02 M6.85 138.45 C43.34 95.75, 80.79 54.92, 126.91 0.34 M6.85 138.45 C32.78 108.85, 58.43 80.38, 126.91 0.34 M11.83 138.81 C57.15 85.67, 101.42 34.52, 132.55 -0.05 M11.83 138.81 C58.16 84.38, 105.78 31.42, 132.55 -0.05 M17.48 138.42 C63.38 85.58, 107.6 37.33, 137.54 0.31 M17.48 138.42 C61.13 90.37, 102.25 42.27, 137.54 0.31 M22.46 138.78 C50.55 105.16, 78.98 76.04, 143.18 -0.09 M22.46 138.78 C61.27 93.72, 99.84 49.95, 143.18 -0.09 M28.11 138.38 C54.19 106.76, 84.97 74.78, 148.17 0.27 M28.11 138.38 C67.13 96.06, 104.43 53.2, 148.17 0.27 M33.09 138.74 C76.64 86.84, 123.53 34.22, 153.81 -0.12 M33.09 138.74 C65.93 101.67, 97.83 64.28, 153.81 -0.12 M38.74 138.35 C62.17 108.85, 89.5 81.77, 158.8 0.24 M38.74 138.35 C85.18 85.19, 131.16 30.91, 158.8 0.24 M43.72 138.71 C75.94 98.45, 109.12 61.72, 164.44 -0.16 M43.72 138.71 C88.38 87.4, 132.33 36.93, 164.44 -0.16 M49.37 138.31 C96.11 85.89, 140.68 32.68, 169.43 0.2 M49.37 138.31 C75.15 109.57, 100.01 79.61, 169.43 0.2 M54.35 138.67 C95.48 91.49, 139.57 42.85, 175.07 -0.19 M54.35 138.67 C89.23 99.53, 125.92 57.6, 175.07 -0.19 M60 138.28 C100.07 91.41, 137.83 46.27, 180.06 0.17 M60 138.28 C93.08 98.16, 126.73 59.41, 180.06 0.17 M64.98 138.64 C112.75 83.88, 159.3 28.51, 185.7 -0.23 M64.98 138.64 C96.04 104.06, 126.43 70.07, 185.7 -0.23 M69.97 139 C116.12 86.55, 167.15 29.93, 190.69 0.13 M69.97 139 C98.75 107.86, 124.81 75.73, 190.69 0.13 M75.61 138.61 C118.33 86, 164.49 33.1, 196.33 -0.26 M75.61 138.61 C104.44 105.45, 133.57 72.5, 196.33 -0.26 M80.6 138.97 C106.69 106.31, 130.81 78.41, 201.32 0.1 M80.6 138.97 C120.13 96.92, 157.55 52.17, 201.32 0.1 M86.24 138.57 C120.44 102.51, 151.54 62.15, 206.96 -0.3 M86.24 138.57 C125.16 92.75, 166.13 45.92, 206.96 -0.3 M91.23 138.93 C113.3 111.47, 139.83 80.28, 211.95 0.06 M91.23 138.93 C138.61 88.03, 183.86 34.7, 211.95 0.06 M96.87 138.54 C121.29 110.5, 145.48 80.6, 217.59 -0.33 M96.87 138.54 C121.65 108.38, 149.28 76.43, 217.59 -0.33 M101.86 138.9 C134.1 106.18, 161.8 68.95, 222.58 0.03 M101.86 138.9 C136.14 100.52, 171.03 61.37, 222.58 0.03 M107.5 138.5 C143.49 94.2, 182.35 49.44, 228.22 -0.36 M107.5 138.5 C141.67 99.65, 174.92 61.93, 228.22 -0.36 M112.49 138.86 C140.02 110.61, 165.66 77.72, 233.21 0 M112.49 138.86 C141.73 105.53, 169.56 73.56, 233.21 0 M118.13 138.47 C147.39 103.38, 181.96 65.68, 238.19 0.36 M118.13 138.47 C151.01 99.22, 186.32 59.4, 238.19 0.36 M123.12 138.83 C155.41 102.57, 186.52 63.66, 243.84 -0.04 M123.12 138.83 C159.89 97.56, 195.29 57.01, 243.84 -0.04 M128.76 138.43 C173.07 87.05, 219.33 34.62, 248.82 0.32 M128.76 138.43 C166.36 94.36, 202.34 54.27, 248.82 0.32 M133.75 138.79 C171.7 95.67, 210.97 51.24, 254.47 -0.07 M133.75 138.79 C166.99 100.57, 201.67 61.79, 254.47 -0.07 M139.39 138.4 C168.57 101.27, 199.27 66.98, 259.45 0.29 M139.39 138.4 C186.97 85.27, 235.75 29.71, 259.45 0.29 M144.38 138.76 C192.04 84.93, 237.94 32.26, 265.1 -0.11 M144.38 138.76 C171.17 109.61, 196.06 78.48, 265.1 -0.11 M150.02 138.36 C196.12 87.29, 243.6 32.82, 270.08 0.25 M150.02 138.36 C188.37 91.8, 229.67 45.95, 270.08 0.25 M155.01 138.72 C188.2 101.17, 215.43 65.93, 275.73 -0.14 M155.01 138.72 C193.5 93.61, 230.74 48.88, 275.73 -0.14 M160.65 138.33 C202.26 89.78, 244.97 42.85, 280.71 0.22 M160.65 138.33 C189.55 103.26, 220.7 69.53, 280.71 0.22 M165.64 138.69 C213.34 81.28, 261.82 28.15, 286.36 -0.18 M165.64 138.69 C192.25 107.28, 218.78 77.07, 286.36 -0.18 M171.28 138.3 C215.5 90.52, 260.57 38.9, 291.34 0.18 M171.28 138.3 C195.32 108.77, 221.15 78.81, 291.34 0.18 M176.27 138.66 C207.47 101.06, 238.2 64.41, 296.99 -0.21 M176.27 138.66 C210.72 96.71, 246.72 56.55, 296.99 -0.21 M181.91 138.26 C229 83.02, 274.84 32.88, 301.97 0.15 M181.91 138.26 C214.7 102.97, 245.47 65.78, 301.97 0.15 M186.9 138.62 C227.3 88.57, 273.45 38.08, 301.71 6.55 M186.9 138.62 C232.17 86.81, 276.32 34.78, 301.71 6.55 M191.89 138.98 C234.21 87.64, 281.1 36.94, 302.11 12.19 M191.89 138.98 C229.06 96.05, 265.14 53.77, 302.11 12.19 M197.53 138.59 C222.64 108.29, 246.31 82.02, 301.85 18.59 M197.53 138.59 C225.62 106.9, 253.76 75.24, 301.85 18.59 M202.52 138.95 C230.92 105.45, 260.87 68.01, 301.58 24.99 M202.52 138.95 C239.61 96.54, 274.81 54.28, 301.58 24.99 M208.16 138.55 C233.6 112.98, 254.75 85.06, 301.98 30.63 M208.16 138.55 C242.77 100.06, 276.54 61.68, 301.98 30.63 M213.15 138.91 C233.54 112.61, 259.16 89.93, 301.72 37.03 M213.15 138.91 C248.72 98.56, 283 58.26, 301.72 37.03 M218.79 138.52 C250.02 101.73, 280.79 68.01, 301.46 43.42 M218.79 138.52 C236.8 117.31, 255.81 97.26, 301.46 43.42 M223.78 138.88 C247.07 109.6, 270.16 86.11, 301.85 49.07 M223.78 138.88 C242.18 116.23, 262.01 94.94, 301.85 49.07 M229.42 138.48 C247.67 116.04, 266.2 95.41, 301.59 55.46 M229.42 138.48 C249.57 115.17, 267.99 93.91, 301.59 55.46 M234.41 138.84 C258.23 110.79, 282.61 83.2, 301.98 61.11 M234.41 138.84 C249.07 121.58, 264.89 103.89, 301.98 61.11 M240.05 138.45 C258.4 115.05, 278.3 90.61, 301.72 67.51 M240.05 138.45 C256.5 119.76, 273.21 101.85, 301.72 67.51 M245.04 138.81 C259.56 123.12, 270.18 109.28, 301.46 73.9 M245.04 138.81 C260.66 121.05, 274.62 102.87, 301.46 73.9 M250.68 138.41 C264.77 121.78, 279.48 104.7, 301.85 79.55 M250.68 138.41 C262 125.81, 272.06 114.99, 301.85 79.55 M255.67 138.77 C265.11 126.79, 274.68 114.87, 301.59 85.94 M255.67 138.77 C274.33 119.53, 291.17 97.96, 301.59 85.94 M261.31 138.38 C271.02 129.36, 276.6 119.87, 301.99 91.59 M261.31 138.38 C271.26 127.09, 280.25 117.03, 301.99 91.59 M266.3 138.74 C277.52 126.15, 284.4 115.97, 301.73 97.99 M266.3 138.74 C278.83 123.41, 292.19 107.65, 301.73 97.99 M271.94 138.34 C279.6 127.11, 288.33 117.13, 301.47 104.38 M271.94 138.34 C281.55 127.46, 292.96 114.02, 301.47 104.38 M276.93 138.71 C282.54 132.36, 290.17 124.46, 301.86 110.03 M276.93 138.71 C284.56 129.81, 293.04 118.74, 301.86 110.03 M282.57 138.31 C289.1 134.82, 289.89 129.78, 301.6 116.42 M282.57 138.31 C288.62 131.12, 294.41 126.48, 301.6 116.42 M287.56 138.67 C289.74 134.2, 294.11 132.52, 301.99 122.07 M287.56 138.67 C293.68 132.34, 298.98 125.06, 301.99 122.07 M293.2 138.28 C296.78 134.25, 297.56 132.68, 301.73 128.46 M293.2 138.28 C295.75 136.4, 297.36 134.04, 301.73 128.46 M298.19 138.64 C298.93 137.66, 299.94 137.2, 301.47 134.86 M298.19 138.64 C299.4 137.44, 300.12 136.5, 301.47 134.86" stroke="#ffffff" stroke-width="0.5" fill="none"></path><path d="M0 0 C85.68 1.7, 171.08 0.35, 301.36 0 M0 0 C91.1 -2.08, 180.9 -1.68, 301.36 0 M301.36 0 C300.81 36.93, 302.44 69.58, 301.36 137.41 M301.36 0 C301.13 41.24, 300.6 84.37, 301.36 137.41 M301.36 137.41 C200.03 134.44, 97.9 136.55, 0 137.41 M301.36 137.41 C230.54 137.41, 160.36 137.39, 0 137.41 M0 137.41 C-0.2 92.88, -1.29 49.37, 0 0 M0 137.41 C0.74 108.31, -0.73 76.63, 0 0" stroke="#1e1e1e" stroke-width="1" fill="none"></path></g><g stroke-linecap="round"><g transform="translate(284.074039733879 364.26248931884766) rotate(0 -5.684341886080802e-14 308.46691513061523)"><path d="M0 0 C-1.35 164.15, -2.67 328.73, 0 616.93" stroke="#1e1e1e" stroke-width="1.5" fill="none" stroke-dasharray="8 9"></path></g></g><mask></mask><g stroke-linecap="round"><g transform="translate(554.4976285052267 364.26248931884766) rotate(0 0 311.02306747436523)"><path d="M0 0 C1.07 136.3, 1.47 272.63, 0 622.05" stroke="#1e1e1e" stroke-width="1.5" fill="none" stroke-dasharray="8 9"></path></g></g><mask></mask><g stroke-linecap="round"><g transform="translate(900.8216649684445 364.26248931884766) rotate(0 1.1368683772161603e-13 311.00243759155296)"><path d="M0 0 C-0.3 142.23, -0.29 284.01, 0 622" stroke="#1e1e1e" stroke-width="1.5" fill="none" stroke-dasharray="8 9"></path></g></g><mask></mask><g stroke-linecap="round"><g transform="translate(1197.4936668257296 364.26248931884766) rotate(0 0 310.48717880249023)"><path d="M0 0 C1.34 182.44, 1.52 366.95, 0 620.97" stroke="#1e1e1e" stroke-width="1.5" fill="none" stroke-dasharray="8 9"></path></g></g><mask></mask><g mask="url(#mask-AW5jZMrZkNIEqWouBbnoB)" stroke-linecap="round"><g transform="translate(552.925358093254 688.4774475097656) rotate(0 175.035400390625 0)"><path d="M0 0 C86.32 -0.06, 174.11 1.37, 350.07 0 M0 0 C79.19 1.32, 157.57 0.79, 350.07 0" stroke="#1e1e1e" stroke-width="1" fill="none"></path></g><g transform="translate(552.925358093254 688.4774475097656) rotate(0 175.035400390625 0)"><path d="M321.92 10.38 C327.9 6.47, 336.11 6.08, 350.07 0 M321.92 10.38 C329 8.75, 334.73 5.59, 350.07 0" stroke="#1e1e1e" stroke-width="1" fill="none"></path></g><g transform="translate(552.925358093254 688.4774475097656) rotate(0 175.035400390625 0)"><path d="M321.84 -10.15 C327.76 -8.95, 335.99 -4.24, 350.07 0 M321.84 -10.15 C328.76 -7.15, 334.51 -5.69, 350.07 0" stroke="#1e1e1e" stroke-width="1" fill="none"></path></g></g><mask id="mask-AW5jZMrZkNIEqWouBbnoB"><rect x="0" y="0" fill="#fff" width="1002.996158874504" height="788.4774475097656"></rect><rect x="613.7608607177658" y="675.9774475097656" fill="#000" width="228.39979553222656" height="25" opacity="1"></rect></mask><g transform="translate(613.7608607177658 675.9774475097656) rotate(0 114.19989776611328 12.900511882374303)"><text x="114.19989776611328" y="0" font-family="Virgil, Segoe UI Emoji" font-size="20px" fill="#1e1e1e" text-anchor="middle" style="white-space: pre;" direction="ltr" dominant-baseline="text-before-edge">Vectorize Search Query</text></g><g transform="translate(12.7872206485074 297.4490789856509) rotate(0 38.51996612548828 12.5)"><text x="0" y="0" font-family="Virgil, Segoe UI Emoji" font-size="20px" fill="#000000" text-anchor="start" style="white-space: pre;" direction="ltr" dominant-baseline="text-before-edge">Engineer</text></g><g stroke-linecap="round"><g transform="translate(10 287.79615297567125) rotate(0 24.63471035906872 -21.9365021053045)" fill-rule="evenodd"><path d="M13.47 -38.64 C13.47 -38.64, 13.47 -38.64, 13.47 -38.64 M13.47 -38.64 C13.47 -38.64, 13.47 -38.64, 13.47 -38.64 M3.11 -14.53 C10.45 -22.98, 17.8 -31.43, 28.04 -43.2 M3.11 -14.53 C11.27 -23.91, 19.43 -33.3, 28.04 -43.2 M0.61 0.53 C11.42 -11.9, 22.23 -24.34, 35.39 -39.47 M0.61 0.53 C13.72 -14.54, 26.83 -29.62, 35.39 -39.47 M11.24 0.5 C20.28 -9.9, 29.32 -20.3, 40.77 -33.46 M11.24 0.5 C21.18 -10.93, 31.11 -22.35, 40.77 -33.46 M21.87 0.47 C29.31 -8.09, 36.74 -16.64, 44.84 -25.95 M21.87 0.47 C29.25 -8.02, 36.62 -16.5, 44.84 -25.95 M32.5 0.43 C38.56 -6.53, 44.61 -13.49, 48.91 -18.44 M32.5 0.43 C36.83 -4.54, 41.15 -9.52, 48.91 -18.44 M44.45 -1.11 C47.15 -4.23, 49.86 -7.34, 51.66 -9.41 M44.45 -1.11 C46.6 -3.59, 48.75 -6.07, 51.66 -9.41 M0 0 C0 0, 0 0, 0 0 M0 0 C0 0, 0 0, 0 0 M12.04 -0.13 C8.49 -3.22, 4.94 -6.31, 1.47 -9.32 M12.04 -0.13 C7.83 -3.79, 3.62 -7.45, 1.47 -9.32 M24.84 0.39 C18.55 -5.07, 12.27 -10.53, 2.95 -18.64 M24.84 0.39 C20.43 -3.44, 16.02 -7.27, 2.95 -18.64 M36.12 -0.4 C29.23 -6.39, 22.34 -12.38, 5.18 -27.3 M36.12 -0.4 C28.67 -6.87, 21.23 -13.35, 5.18 -27.3 M46.65 -1.84 C35.57 -11.48, 24.49 -21.11, 9.67 -33.99 M46.65 -1.84 C34.6 -12.32, 22.55 -22.79, 9.67 -33.99 M51.9 -7.88 C40.95 -17.41, 29.99 -26.93, 14.92 -40.03 M51.9 -7.88 C41.76 -16.7, 31.62 -25.52, 14.92 -40.03 M47.34 -22.45 C40.41 -28.47, 33.49 -34.49, 22.43 -44.1 M47.34 -22.45 C37.48 -31.02, 27.61 -39.6, 22.43 -44.1" stroke="#ced4da" stroke-width="1" fill="none"></path><path d="M0 0 C0.92 -4.85, 1.58 -21.76, 5.52 -29.07 C9.46 -36.38, 17.61 -43.34, 23.65 -43.87 C29.69 -44.4, 37.51 -39.05, 41.78 -32.24 C46.05 -25.43, 56.23 -8.39, 49.27 -3.02 C42.31 2.36, 8.21 -0.5, 0 0 M0 0 C0.92 -4.85, 1.58 -21.76, 5.52 -29.07 C9.46 -36.38, 17.61 -43.34, 23.65 -43.87 C29.69 -44.4, 37.51 -39.05, 41.78 -32.24 C46.05 -25.43, 56.23 -8.39, 49.27 -3.02 C42.31 2.36, 8.21 -0.5, 0 0" stroke="#000000" stroke-width="2" fill="none"></path></g></g><mask></mask><g stroke-linecap="round" transform="translate(22.453870836315673 221.10510518981482) rotate(0 12.612971703843215 11.03635024086293)"><path d="M2.98 3.91 C2.98 3.91, 2.98 3.91, 2.98 3.91 M2.98 3.91 C2.98 3.91, 2.98 3.91, 2.98 3.91 M2.45 16.71 C6.28 12.31, 10.11 7.9, 16.23 0.86 M2.45 16.71 C7.32 11.11, 12.18 5.52, 16.23 0.86 M8.49 21.96 C11.95 17.98, 15.4 14, 22.92 5.35 M8.49 21.96 C14.01 15.61, 19.53 9.26, 22.92 5.35 M4.36 19.37 C4.36 19.37, 4.36 19.37, 4.36 19.37 M4.36 19.37 C4.36 19.37, 4.36 19.37, 4.36 19.37 M17.91 20.55 C11.7 15.14, 5.48 9.74, 1.31 6.11 M17.91 20.55 C13.25 16.49, 8.58 12.43, 1.31 6.11 M23.92 15.17 C18.97 10.87, 14.02 6.57, 7.31 0.73 M23.92 15.17 C20.29 12.01, 16.67 8.86, 7.31 0.73" stroke="#ced4da" stroke-width="1" fill="none"></path><path d="M25.23 11.04 C25.23 11.68, 25.16 12.32, 25.03 12.95 C24.91 13.58, 24.71 14.21, 24.47 14.81 C24.22 15.41, 23.9 16, 23.54 16.55 C23.17 17.11, 22.74 17.64, 22.28 18.13 C21.81 18.62, 21.28 19.08, 20.72 19.49 C20.16 19.9, 19.55 20.27, 18.92 20.59 C18.29 20.91, 17.61 21.19, 16.93 21.41 C16.24 21.63, 15.52 21.79, 14.8 21.91 C14.08 22.02, 13.34 22.07, 12.61 22.07 C11.88 22.07, 11.14 22.02, 10.42 21.91 C9.7 21.79, 8.99 21.63, 8.3 21.41 C7.61 21.19, 6.94 20.91, 6.31 20.59 C5.67 20.27, 5.06 19.9, 4.51 19.49 C3.95 19.08, 3.42 18.62, 2.95 18.13 C2.48 17.64, 2.05 17.11, 1.69 16.55 C1.32 16, 1.01 15.41, 0.76 14.81 C0.51 14.21, 0.32 13.58, 0.19 12.95 C0.06 12.32, 0 11.68, 0 11.04 C0 10.4, 0.06 9.75, 0.19 9.12 C0.32 8.49, 0.51 7.86, 0.76 7.26 C1.01 6.66, 1.32 6.07, 1.69 5.52 C2.05 4.96, 2.48 4.43, 2.95 3.94 C3.42 3.45, 3.95 2.99, 4.51 2.58 C5.06 2.17, 5.67 1.8, 6.31 1.48 C6.94 1.16, 7.61 0.88, 8.3 0.67 C8.99 0.45, 9.7 0.28, 10.42 0.17 C11.14 0.06, 11.88 0, 12.61 0 C13.34 0, 14.08 0.06, 14.8 0.17 C15.52 0.28, 16.24 0.45, 16.93 0.67 C17.61 0.88, 18.29 1.16, 18.92 1.48 C19.55 1.8, 20.16 2.17, 20.72 2.58 C21.28 2.99, 21.81 3.45, 22.28 3.94 C22.74 4.43, 23.17 4.96, 23.54 5.52 C23.9 6.07, 24.22 6.66, 24.47 7.26 C24.71 7.86, 24.91 8.49, 25.03 9.12 C25.16 9.75, 25.19 10.72, 25.23 11.04 C25.26 11.36, 25.26 10.72, 25.23 11.04" stroke="#000000" stroke-width="2" fill="none"></path></g><g stroke-linecap="round"><g transform="translate(39.634098327628976 366.2736282348633) rotate(0 0 309.7952690124512)"><path d="M0 0 C-1.04 136.87, -1.69 274.91, 0 619.59" stroke="#1e1e1e" stroke-width="1.5" fill="none" stroke-dasharray="8 9"></path></g></g><mask></mask><g stroke-linecap="round"><g transform="translate(1555.3441360204465 364.26248931884766) rotate(0 0 310.640193939209)"><path d="M0 0 C0.2 238.86, -0.17 477.49, 0 621.28" stroke="#1e1e1e" stroke-width="1.5" fill="none" stroke-dasharray="8 9"></path></g></g><mask></mask><g mask="url(#mask-IoGWiw5vGtaQs-vsO3XRR)" stroke-linecap="round"><g transform="translate(40.337955749503976 405.2176818847656) rotate(0 756.5744934082031 0)"><path d="M0 0 C560.78 4.67, 1120.65 5.1, 1513.15 0 M0 0 C388.6 -1.29, 776.95 -1.07, 1513.15 0" stroke="#1e1e1e" stroke-width="1" fill="none"></path></g><g transform="translate(40.337955749503976 405.2176818847656) rotate(0 756.5744934082031 0)"><path d="M1484.95 10.23 C1496.28 5.77, 1505.37 3.07, 1513.15 0 M1484.95 10.23 C1492.2 6.97, 1498.74 4.9, 1513.15 0" stroke="#1e1e1e" stroke-width="1" fill="none"></path></g><g transform="translate(40.337955749503976 405.2176818847656) rotate(0 756.5744934082031 0)"><path d="M1484.97 -10.3 C1496.36 -7.15, 1505.44 -2.25, 1513.15 0 M1484.97 -10.3 C1492.03 -8.28, 1498.57 -5.08, 1513.15 0" stroke="#1e1e1e" stroke-width="1" fill="none"></path></g></g><mask id="mask-IoGWiw5vGtaQs-vsO3XRR"><rect x="0" y="0" fill="#fff" width="1653.4869425659103" height="505.2176818847656"></rect><rect x="386.0827372436446" y="392.7176818847656" fill="#000" width="821.659423828125" height="25" opacity="1"></rect></mask><g transform="translate(386.0827372436447 392.7176818847656) rotate(0 410.8297119140625 13.889185693594754)"><text x="410.8297119140625" y="0" font-family="Virgil, Segoe UI Emoji" font-size="20px" fill="#1e1e1e" text-anchor="middle" style="white-space: pre;" direction="ltr" dominant-baseline="text-before-edge">Create Database, Keyspace, and Movie Table with Vector Column and Query Index</text></g><g mask="url(#mask-pDfAvDKWxQgL8AMyPZuoS)" stroke-linecap="round"><g transform="translate(1554.7283976440353 457.4003601074219) rotate(0 -757.2926635742188 0)"><path d="M0 0 C-585.9 4.04, -1172 3.78, -1514.59 0" stroke="#1e1e1e" stroke-width="1.5" fill="none" stroke-dasharray="8 9"></path></g><g transform="translate(1554.7283976440353 457.4003601074219) rotate(0 -757.2926635742188 0)"><path d="M-1486.33 -10.07 C-1496.22 -6.22, -1506.72 -2.96, -1514.59 0" stroke="#1e1e1e" stroke-width="1.5" fill="none"></path></g><g transform="translate(1554.7283976440353 457.4003601074219) rotate(0 -757.2926635742188 0)"><path d="M-1486.46 10.45 C-1496.49 6.36, -1506.94 1.67, -1514.59 0" stroke="#1e1e1e" stroke-width="1.5" fill="none"></path></g></g><mask id="mask-pDfAvDKWxQgL8AMyPZuoS"><rect x="0" y="0" fill="#fff" width="3169.313724792473" height="557.4003601074219"></rect><rect x="649.3758280639572" y="444.9003601074219" fill="#000" width="296.11981201171875" height="25" opacity="1"></rect></mask><g transform="translate(649.3758280639572 444.9003601074219) rotate(0 148.05990600585938 13.966200798785621)"><text x="148.05990600585938" y="0" font-family="Virgil, Segoe UI Emoji" font-size="20px" fill="#1e1e1e" text-anchor="middle" style="white-space: pre;" direction="ltr" dominant-baseline="text-before-edge">Database and Index Created</text></g><g mask="url(#mask-EHUbiJ1_xs13n5Gp-6qT1)" stroke-linecap="round"><g transform="translate(40.871341979972726 508.9685974121094) rotate(0 430.41778564453125 0)"><path d="M0 0 C271.24 -2.37, 541.06 -2.36, 860.84 0 M0 0 C253.57 -0.11, 506.84 0.33, 860.84 0" stroke="#1e1e1e" stroke-width="1" fill="none"></path></g><g transform="translate(40.871341979972726 508.9685974121094) rotate(0 430.41778564453125 0)"><path d="M832.65 10.27 C842.51 7.66, 848.73 4.46, 860.84 0 M832.65 10.27 C841.73 6.92, 850.12 5, 860.84 0" stroke="#1e1e1e" stroke-width="1" fill="none"></path></g><g transform="translate(40.871341979972726 508.9685974121094) rotate(0 430.41778564453125 0)"><path d="M832.64 -10.25 C842.3 -6.41, 848.53 -3.15, 860.84 0 M832.64 -10.25 C841.87 -7.56, 850.26 -3.45, 860.84 0" stroke="#1e1e1e" stroke-width="1" fill="none"></path></g></g><mask id="mask-EHUbiJ1_xs13n5Gp-6qT1"><rect x="0" y="0" fill="#fff" width="1001.7069132690352" height="608.9685974121094"></rect><rect x="248.87930706786335" y="496.4685974121094" fill="#000" width="444.81964111328125" height="25" opacity="1"></rect></mask><g transform="translate(248.87930706786335 496.4685974121094) rotate(0 222.40982055664062 11.676097244999482)"><text x="222.40982055664062" y="0" font-family="Virgil, Segoe UI Emoji" font-size="20px" fill="#1e1e1e" text-anchor="middle" style="white-space: pre;" direction="ltr" dominant-baseline="text-before-edge">Generate Seed Data with Vector Embeddings</text></g><g mask="url(#mask-eUMEBYAsgIfA7B7zlcQj8)" stroke-linecap="round"><g transform="translate(901.9598429565352 542.7795104980469) rotate(0 326.36572265625 0)"><path d="M0 0 C165.53 -2.53, 330.78 -2.8, 652.73 0 M0 0 C194.67 -2.85, 389.09 -2.08, 652.73 0" stroke="#1e1e1e" stroke-width="1" fill="none"></path></g><g transform="translate(901.9598429565352 542.7795104980469) rotate(0 326.36572265625 0)"><path d="M624.47 10.07 C631.72 7.26, 638.37 4.04, 652.73 0 M624.47 10.07 C633.3 5.87, 641.53 4.79, 652.73 0" stroke="#1e1e1e" stroke-width="1" fill="none"></path></g><g transform="translate(901.9598429565352 542.7795104980469) rotate(0 326.36572265625 0)"><path d="M624.61 -10.45 C631.99 -8.05, 638.61 -6.07, 652.73 0 M624.61 -10.45 C633.41 -8.54, 641.6 -3.5, 652.73 0" stroke="#1e1e1e" stroke-width="1" fill="none"></path></g></g><mask id="mask-eUMEBYAsgIfA7B7zlcQj8"><rect x="0" y="0" fill="#fff" width="1654.6912882690353" height="642.7795104980469"></rect><rect x="1084.3956797485275" y="530.2795104980469" fill="#000" width="287.8597717285156" height="25" opacity="1"></rect></mask><g transform="translate(1084.3956797485275 530.2795104980469) rotate(0 143.9298858642578 11.499732925211447)"><text x="143.9298858642578" y="0" font-family="Virgil, Segoe UI Emoji" font-size="20px" fill="#1e1e1e" text-anchor="middle" style="white-space: pre;" direction="ltr" dominant-baseline="text-before-edge">Insert Data with Embeddings</text></g><g mask="url(#mask-ZKwhEn2FEgJuieFMCDvkS)" stroke-linecap="round"><g transform="translate(1557.0079386596603 589.8523254394531) rotate(0 -757.9470825195312 0)"><path d="M0 0 C-570.22 4.2, -1140.44 4.15, -1515.89 0" stroke="#1e1e1e" stroke-width="1.5" fill="none" stroke-dasharray="8 9"></path></g><g transform="translate(1557.0079386596603 589.8523254394531) rotate(0 -757.9470825195312 0)"><path d="M-1487.63 -10.07 C-1497.34 -7.32, -1507.05 -3.66, -1515.89 0" stroke="#1e1e1e" stroke-width="1.5" fill="none"></path></g><g transform="translate(1557.0079386596603 589.8523254394531) rotate(0 -757.9470825195312 0)"><path d="M-1487.77 10.45 C-1497.48 5.48, -1507.14 1.41, -1515.89 0" stroke="#1e1e1e" stroke-width="1.5" fill="none"></path></g></g><mask id="mask-ZKwhEn2FEgJuieFMCDvkS"><rect x="0" y="0" fill="#fff" width="3172.902103698723" height="689.8523254394531"></rect><rect x="645.8109782104416" y="577.3523254394531" fill="#000" width="306.499755859375" height="25" opacity="1"></rect></mask><g transform="translate(645.8109782104416 577.3523254394531) rotate(0 153.2498779296875 14.066370741570609)"><text x="153.2498779296875" y="0" font-family="Virgil, Segoe UI Emoji" font-size="20px" fill="#1e1e1e" text-anchor="middle" style="white-space: pre;" direction="ltr" dominant-baseline="text-before-edge">Data and Embeddings Inserted</text></g><g mask="url(#mask-vVhmKJUqtoW4QCXR6EtH_)" stroke-linecap="round"><g transform="translate(284.7174113159102 639.3398742675781) rotate(0 136.1259765625 0)"><path d="M0 0 C58.62 -0.96, 115.33 -2.71, 272.25 0 M0 0 C60.77 0.8, 122.03 1.32, 272.25 0" stroke="#1e1e1e" stroke-width="1" fill="none"></path></g><g transform="translate(284.7174113159102 639.3398742675781) rotate(0 136.1259765625 0)"><path d="M244.13 10.44 C251.07 8.4, 255.65 3.95, 272.25 0 M244.13 10.44 C249.77 7.96, 256.08 6.27, 272.25 0" stroke="#1e1e1e" stroke-width="1" fill="none"></path></g><g transform="translate(284.7174113159102 639.3398742675781) rotate(0 136.1259765625 0)"><path d="M244 -10.08 C251.14 -7.76, 255.74 -7.86, 272.25 0 M244 -10.08 C249.73 -7.94, 256.07 -5.01, 272.25 0" stroke="#1e1e1e" stroke-width="1" fill="none"></path></g></g><mask id="mask-vVhmKJUqtoW4QCXR6EtH_"><rect x="0" y="0" fill="#fff" width="656.9693644409102" height="739.3398742675781"></rect><rect x="328.29346874999226" y="626.8398742675781" fill="#000" width="185.09983825683594" height="25" opacity="1"></rect></mask><g transform="translate(328.29346874999237 626.8398742675781) rotate(0 92.54991912841797 12.18034344319085)"><text x="92.54991912841797" y="0" font-family="Virgil, Segoe UI Emoji" font-size="20px" fill="#1e1e1e" text-anchor="middle" style="white-space: pre;" direction="ltr" dominant-baseline="text-before-edge">Search Movie Title</text></g><g mask="url(#mask-wA0WsOv2dSw3yXWJoXUNY)" stroke-linecap="round"><g transform="translate(900.4813273315352 740.8739318847656) rotate(0 -172.5009765625 0)"><path d="M0 0 C-102.65 -1.87, -207.93 -1.8, -345 0" stroke="#1e1e1e" stroke-width="1.5" fill="none" stroke-dasharray="8 9"></path></g><g transform="translate(900.4813273315352 740.8739318847656) rotate(0 -172.5009765625 0)"><path d="M-316.91 -10.54 C-323.48 -7.32, -334.05 -4.03, -345 0" stroke="#1e1e1e" stroke-width="1.5" fill="none"></path></g><g transform="translate(900.4813273315352 740.8739318847656) rotate(0 -172.5009765625 0)"><path d="M-316.71 9.98 C-323.36 7.02, -333.99 4.13, -345 0" stroke="#1e1e1e" stroke-width="1.5" fill="none"></path></g></g><mask id="mask-wA0WsOv2dSw3yXWJoXUNY"><rect x="0" y="0" fill="#fff" width="1345.4832804565353" height="840.8739318847656"></rect><rect x="648.1204188232346" y="728.3739318847656" fill="#000" width="159.71986389160156" height="25" opacity="1"></rect></mask><g transform="translate(648.1204188232346 728.3739318847656) rotate(0 79.85993194580078 11.811959301088336)"><text x="79.85993194580078" y="0" font-family="Virgil, Segoe UI Emoji" font-size="20px" fill="#1e1e1e" text-anchor="middle" style="white-space: pre;" direction="ltr" dominant-baseline="text-before-edge">Vector Returned</text></g><g mask="url(#mask-wutJikb7UcGVb9XQjiVsG)" stroke-linecap="round"><g transform="translate(556.0982706909102 801.3812561035156) rotate(0 319.99383544921875 0)"><path d="M0 0 C234.57 -0.48, 469.5 -0.1, 639.99 0 M0 0 C133.49 -2.02, 266.15 -2.32, 639.99 0" stroke="#1e1e1e" stroke-width="1" fill="none"></path></g><g transform="translate(556.0982706909102 801.3812561035156) rotate(0 319.99383544921875 0)"><path d="M611.75 10.12 C620.84 4.75, 630.83 1.98, 639.99 0 M611.75 10.12 C618.29 8.46, 622.75 5.6, 639.99 0" stroke="#1e1e1e" stroke-width="1" fill="none"></path></g><g transform="translate(556.0982706909102 801.3812561035156) rotate(0 319.99383544921875 0)"><path d="M611.85 -10.4 C620.91 -8.24, 630.87 -3.47, 639.99 0 M611.85 -10.4 C618.29 -7.79, 622.72 -6.37, 639.99 0" stroke="#1e1e1e" stroke-width="1" fill="none"></path></g></g><mask id="mask-wutJikb7UcGVb9XQjiVsG"><rect x="0" y="0" fill="#fff" width="1296.0859415893478" height="901.3812561035156"></rect><rect x="678.7422526245041" y="776.3812561035156" fill="#000" width="394.69970703125" height="50" opacity="1"></rect></mask><g transform="translate(678.7422526245041 776.3812561035156) rotate(0 197.349853515625 24.187052728477056)"><text x="197.349853515625" y="0" font-family="Virgil, Segoe UI Emoji" font-size="20px" fill="#1e1e1e" text-anchor="middle" style="white-space: pre;" direction="ltr" dominant-baseline="text-before-edge">Query Database for "ANN" with Vector </text><text x="197.349853515625" y="25" font-family="Virgil, Segoe UI Emoji" font-size="20px" fill="#1e1e1e" text-anchor="middle" style="white-space: pre;" direction="ltr" dominant-baseline="text-before-edge">Query</text></g><g stroke-linecap="round" transform="translate(458.1356998795253 225.5291477702067) rotate(0 32.2305761824785 32.19971236713013)"><path d="M0 0 C0 0, 0 0, 0 0 M0 0 C0 0, 0 0, 0 0 M0.13 12.04 C3.02 8.72, 5.91 5.4, 10.63 -0.03 M0.13 12.04 C2.56 9.25, 4.99 6.45, 10.63 -0.03 M0.27 24.08 C4.93 18.71, 9.6 13.34, 21.26 -0.07 M0.27 24.08 C7.99 15.2, 15.71 6.31, 21.26 -0.07 M-0.26 36.88 C6.87 28.68, 13.99 20.49, 31.89 -0.1 M-0.26 36.88 C10.23 24.82, 20.71 12.76, 31.89 -0.1 M-0.12 48.92 C10.22 37.02, 20.57 25.11, 42.52 -0.14 M-0.12 48.92 C16.16 30.19, 32.45 11.45, 42.52 -0.14 M0.01 60.96 C11.85 47.34, 23.69 33.72, 53.15 -0.17 M0.01 60.96 C20.66 37.2, 41.31 13.45, 53.15 -0.17 M7.36 64.7 C21.54 48.39, 35.71 32.08, 63.78 -0.21 M7.36 64.7 C21.09 48.9, 34.82 33.11, 63.78 -0.21 M17.99 64.66 C29.8 51.08, 41.6 37.5, 64.57 11.08 M17.99 64.66 C29.73 51.15, 41.48 37.64, 64.57 11.08 M28.62 64.63 C42.17 49.04, 55.71 33.46, 64.7 23.12 M28.62 64.63 C42.9 48.2, 57.18 31.78, 64.7 23.12 M39.25 64.59 C46.11 56.7, 52.97 48.81, 64.84 35.16 M39.25 64.59 C46.81 55.9, 54.36 47.21, 64.84 35.16 M49.88 64.56 C53.99 59.84, 58.09 55.11, 64.97 47.2 M49.88 64.56 C54.07 59.74, 58.27 54.91, 64.97 47.2 M60.51 64.53 C61.7 63.16, 62.88 61.8, 64.45 60 M60.51 64.53 C61.86 62.98, 63.2 61.43, 64.45 60 M-0.19 64.24 C-0.19 64.24, -0.19 64.24, -0.19 64.24 M-0.19 64.24 C-0.19 64.24, -0.19 64.24, -0.19 64.24 M11.85 64.1 C7.43 60.25, 3 56.41, -0.22 53.61 M11.85 64.1 C7.48 60.3, 3.11 56.5, -0.22 53.61 M24.65 64.63 C18.2 59.02, 11.75 53.41, -0.26 42.98 M24.65 64.63 C15.6 56.76, 6.55 48.9, -0.26 42.98 M36.69 64.49 C23.46 52.99, 10.23 41.49, -0.29 32.35 M36.69 64.49 C23.04 52.63, 9.39 40.76, -0.29 32.35 M48.73 64.36 C38.36 55.35, 27.99 46.33, -0.33 21.72 M48.73 64.36 C33 50.69, 17.28 37.02, -0.33 21.72 M60.77 64.23 C39.49 45.73, 18.21 27.23, -0.36 11.09 M60.77 64.23 C40.98 47.02, 21.19 29.82, -0.36 11.09 M65.26 57.53 C48.34 42.82, 31.41 28.11, 0.36 1.11 M65.26 57.53 C44.76 39.71, 24.25 21.88, 0.36 1.11 M65.23 46.9 C49.43 33.17, 33.64 19.44, 10.89 -0.33 M65.23 46.9 C52.68 35.99, 40.13 25.09, 10.89 -0.33 M65.2 36.27 C56.21 28.46, 47.23 20.66, 22.93 -0.47 M65.2 36.27 C54.01 26.55, 42.82 16.82, 22.93 -0.47 M65.16 25.64 C55.56 17.29, 45.95 8.94, 34.97 -0.6 M65.16 25.64 C57.88 19.31, 50.6 12.98, 34.97 -0.6 M65.13 15.01 C61.63 11.97, 58.13 8.93, 47.77 -0.08 M65.13 15.01 C60.31 10.82, 55.49 6.63, 47.77 -0.08 M65.09 4.38 C63.81 3.27, 62.53 2.15, 59.81 -0.21 M65.09 4.38 C63.24 2.77, 61.39 1.16, 59.81 -0.21" stroke="#7950f288" stroke-width="1" fill="none"></path><path d="M0 0 C17.06 0, 34.12 0, 64.46 0 M0 0 C13.26 0, 26.52 0, 64.46 0 M64.46 0 C64.46 22.19, 64.46 44.39, 64.46 64.4 M64.46 0 C64.46 21.79, 64.46 43.59, 64.46 64.4 M64.46 64.4 C46 64.4, 27.54 64.4, 0 64.4 M64.46 64.4 C46.09 64.4, 27.72 64.4, 0 64.4 M0 64.4 C0 45.86, 0 27.32, 0 0 M0 64.4 C0 44.02, 0 23.65, 0 0" stroke="#000000" stroke-width="2" fill="none"></path></g><g stroke-linecap="round" transform="translate(465.1080955978417 232.91109912540196) rotate(0 25.258180464162024 24.817761011934635)"><path d="M50.52 24.82 C50.52 26.25, 50.39 27.71, 50.13 29.13 C49.88 30.54, 49.49 31.96, 48.99 33.31 C48.49 34.66, 47.86 35.98, 47.13 37.23 C46.4 38.47, 45.55 39.67, 44.61 40.77 C43.67 41.87, 42.61 42.91, 41.49 43.83 C40.37 44.75, 39.15 45.59, 37.89 46.31 C36.62 47.03, 35.27 47.65, 33.9 48.14 C32.52 48.63, 31.08 49.01, 29.64 49.26 C28.2 49.51, 26.72 49.64, 25.26 49.64 C23.8 49.64, 22.31 49.51, 20.87 49.26 C19.43 49.01, 17.99 48.63, 16.62 48.14 C15.25 47.65, 13.9 47.03, 12.63 46.31 C11.36 45.59, 10.14 44.75, 9.02 43.83 C7.9 42.91, 6.85 41.87, 5.91 40.77 C4.97 39.67, 4.11 38.47, 3.38 37.23 C2.65 35.98, 2.02 34.66, 1.52 33.31 C1.02 31.96, 0.64 30.54, 0.38 29.13 C0.13 27.71, 0 26.25, 0 24.82 C0 23.38, 0.13 21.92, 0.38 20.51 C0.64 19.09, 1.02 17.68, 1.52 16.33 C2.02 14.98, 2.65 13.65, 3.38 12.41 C4.11 11.16, 4.97 9.97, 5.91 8.87 C6.85 7.76, 7.9 6.73, 9.02 5.81 C10.14 4.88, 11.36 4.04, 12.63 3.32 C13.9 2.61, 15.25 1.99, 16.62 1.5 C17.99 1.01, 19.43 0.63, 20.87 0.38 C22.31 0.13, 23.8 0, 25.26 0 C26.72 0, 28.2 0.13, 29.64 0.38 C31.08 0.63, 32.52 1.01, 33.9 1.5 C35.27 1.99, 36.62 2.61, 37.89 3.32 C39.15 4.04, 40.37 4.88, 41.49 5.81 C42.61 6.73, 43.67 7.76, 44.61 8.87 C45.55 9.97, 46.4 11.16, 47.13 12.41 C47.86 13.65, 48.49 14.98, 48.99 16.33 C49.49 17.68, 49.88 19.09, 50.13 20.51 C50.39 21.92, 50.45 24.1, 50.52 24.82 C50.58 25.54, 50.58 24.1, 50.52 24.82" stroke="#000000" stroke-width="2" fill="none"></path></g><g stroke-linecap="round" transform="translate(489.07743073342715 240.30363835544995) rotate(0 4.422649308747168 4.422649308747168)"><path d="M8.85 4.42 C8.85 4.68, 8.82 4.94, 8.78 5.19 C8.73 5.44, 8.67 5.69, 8.58 5.94 C8.49 6.18, 8.38 6.41, 8.25 6.63 C8.12 6.86, 7.98 7.07, 7.81 7.27 C7.65 7.46, 7.46 7.65, 7.27 7.81 C7.07 7.98, 6.86 8.12, 6.63 8.25 C6.41 8.38, 6.18 8.49, 5.94 8.58 C5.69 8.67, 5.44 8.73, 5.19 8.78 C4.94 8.82, 4.68 8.85, 4.42 8.85 C4.17 8.85, 3.91 8.82, 3.65 8.78 C3.4 8.73, 3.15 8.67, 2.91 8.58 C2.67 8.49, 2.43 8.38, 2.21 8.25 C1.99 8.12, 1.78 7.98, 1.58 7.81 C1.38 7.65, 1.2 7.46, 1.03 7.27 C0.87 7.07, 0.72 6.86, 0.59 6.63 C0.46 6.41, 0.35 6.18, 0.27 5.94 C0.18 5.69, 0.11 5.44, 0.07 5.19 C0.02 4.94, 0 4.68, 0 4.42 C0 4.17, 0.02 3.91, 0.07 3.65 C0.11 3.4, 0.18 3.15, 0.27 2.91 C0.35 2.67, 0.46 2.43, 0.59 2.21 C0.72 1.99, 0.87 1.78, 1.03 1.58 C1.2 1.38, 1.38 1.2, 1.58 1.03 C1.78 0.87, 1.99 0.72, 2.21 0.59 C2.43 0.46, 2.67 0.35, 2.91 0.27 C3.15 0.18, 3.4 0.11, 3.65 0.07 C3.91 0.02, 4.17 0, 4.42 0 C4.68 0, 4.94 0.02, 5.19 0.07 C5.44 0.11, 5.69 0.18, 5.94 0.27 C6.18 0.35, 6.41 0.46, 6.63 0.59 C6.86 0.72, 7.07 0.87, 7.27 1.03 C7.46 1.2, 7.65 1.38, 7.81 1.58 C7.98 1.78, 8.12 1.99, 8.25 2.21 C8.38 2.43, 8.49 2.67, 8.58 2.91 C8.67 3.15, 8.73 3.4, 8.78 3.65 C8.82 3.91, 8.83 4.29, 8.85 4.42 C8.86 4.55, 8.86 4.29, 8.85 4.42" stroke="#000000" stroke-width="2" fill="none"></path></g><g stroke-linecap="round" transform="translate(496.1170042532643 262.60570194211505) rotate(0 4.422649308747168 4.422649308747168)"><path d="M8.85 4.42 C8.85 4.68, 8.82 4.94, 8.78 5.19 C8.73 5.44, 8.67 5.69, 8.58 5.94 C8.49 6.18, 8.38 6.41, 8.25 6.63 C8.12 6.86, 7.98 7.07, 7.81 7.27 C7.65 7.46, 7.46 7.65, 7.27 7.81 C7.07 7.98, 6.86 8.12, 6.63 8.25 C6.41 8.38, 6.18 8.49, 5.94 8.58 C5.69 8.67, 5.44 8.73, 5.19 8.78 C4.94 8.82, 4.68 8.85, 4.42 8.85 C4.17 8.85, 3.91 8.82, 3.65 8.78 C3.4 8.73, 3.15 8.67, 2.91 8.58 C2.67 8.49, 2.43 8.38, 2.21 8.25 C1.99 8.12, 1.78 7.98, 1.58 7.81 C1.38 7.65, 1.2 7.46, 1.03 7.27 C0.87 7.07, 0.72 6.86, 0.59 6.63 C0.46 6.41, 0.35 6.18, 0.27 5.94 C0.18 5.69, 0.11 5.44, 0.07 5.19 C0.02 4.94, 0 4.68, 0 4.42 C0 4.17, 0.02 3.91, 0.07 3.65 C0.11 3.4, 0.18 3.15, 0.27 2.91 C0.35 2.67, 0.46 2.43, 0.59 2.21 C0.72 1.99, 0.87 1.78, 1.03 1.58 C1.2 1.38, 1.38 1.2, 1.58 1.03 C1.78 0.87, 1.99 0.72, 2.21 0.59 C2.43 0.46, 2.67 0.35, 2.91 0.27 C3.15 0.18, 3.4 0.11, 3.65 0.07 C3.91 0.02, 4.17 0, 4.42 0 C4.68 0, 4.94 0.02, 5.19 0.07 C5.44 0.11, 5.69 0.18, 5.94 0.27 C6.18 0.35, 6.41 0.46, 6.63 0.59 C6.86 0.72, 7.07 0.87, 7.27 1.03 C7.46 1.2, 7.65 1.38, 7.81 1.58 C7.98 1.78, 8.12 1.99, 8.25 2.21 C8.38 2.43, 8.49 2.67, 8.58 2.91 C8.67 3.15, 8.73 3.4, 8.78 3.65 C8.82 3.91, 8.83 4.29, 8.85 4.42 C8.86 4.55, 8.86 4.29, 8.85 4.42" stroke="#000000" stroke-width="2" fill="none"></path></g><g stroke-linecap="round" transform="translate(475.1851769324934 254.69526744360883) rotate(0 4.422649308747168 4.422649308747168)"><path d="M8.85 4.42 C8.85 4.68, 8.82 4.94, 8.78 5.19 C8.73 5.44, 8.67 5.69, 8.58 5.94 C8.49 6.18, 8.38 6.41, 8.25 6.63 C8.12 6.86, 7.98 7.07, 7.81 7.27 C7.65 7.46, 7.46 7.65, 7.27 7.81 C7.07 7.98, 6.86 8.12, 6.63 8.25 C6.41 8.38, 6.18 8.49, 5.94 8.58 C5.69 8.67, 5.44 8.73, 5.19 8.78 C4.94 8.82, 4.68 8.85, 4.42 8.85 C4.17 8.85, 3.91 8.82, 3.65 8.78 C3.4 8.73, 3.15 8.67, 2.91 8.58 C2.67 8.49, 2.43 8.38, 2.21 8.25 C1.99 8.12, 1.78 7.98, 1.58 7.81 C1.38 7.65, 1.2 7.46, 1.03 7.27 C0.87 7.07, 0.72 6.86, 0.59 6.63 C0.46 6.41, 0.35 6.18, 0.27 5.94 C0.18 5.69, 0.11 5.44, 0.07 5.19 C0.02 4.94, 0 4.68, 0 4.42 C0 4.17, 0.02 3.91, 0.07 3.65 C0.11 3.4, 0.18 3.15, 0.27 2.91 C0.35 2.67, 0.46 2.43, 0.59 2.21 C0.72 1.99, 0.87 1.78, 1.03 1.58 C1.2 1.38, 1.38 1.2, 1.58 1.03 C1.78 0.87, 1.99 0.72, 2.21 0.59 C2.43 0.46, 2.67 0.35, 2.91 0.27 C3.15 0.18, 3.4 0.11, 3.65 0.07 C3.91 0.02, 4.17 0, 4.42 0 C4.68 0, 4.94 0.02, 5.19 0.07 C5.44 0.11, 5.69 0.18, 5.94 0.27 C6.18 0.35, 6.41 0.46, 6.63 0.59 C6.86 0.72, 7.07 0.87, 7.27 1.03 C7.46 1.2, 7.65 1.38, 7.81 1.58 C7.98 1.78, 8.12 1.99, 8.25 2.21 C8.38 2.43, 8.49 2.67, 8.58 2.91 C8.67 3.15, 8.73 3.4, 8.78 3.65 C8.82 3.91, 8.83 4.29, 8.85 4.42 C8.86 4.55, 8.86 4.29, 8.85 4.42" stroke="#000000" stroke-width="2" fill="none"></path></g><g stroke-linecap="round"><g transform="translate(497.5943362749407 250.7305104592724) rotate(0 1.8216241574755259 4.424821442248685)"><path d="M0 0 C0.38 0.71, 1.7 2.79, 2.3 4.26 C2.91 5.74, 3.42 8.08, 3.64 8.85 M0 0 C0.38 0.71, 1.7 2.79, 2.3 4.26 C2.91 5.74, 3.42 8.08, 3.64 8.85" stroke="#000000" stroke-width="2" fill="none"></path></g></g><mask></mask><g stroke-linecap="round"><g transform="translate(488.5322910466924 258.31086144732217) rotate(315 1.8216241574755259 4.424821442248685)"><path d="M0 0 C0.38 0.71, 1.7 2.79, 2.3 4.26 C2.91 5.74, 3.42 8.08, 3.64 8.85 M0 0 C0.38 0.71, 1.7 2.79, 2.3 4.26 C2.91 5.74, 3.42 8.08, 3.64 8.85" stroke="#000000" stroke-width="2" fill="none"></path></g></g><mask></mask><g stroke-linecap="round"><g transform="translate(482.96646546862974 247.79971447063326) rotate(248.115524448776 1.1769789749691881 2.948466264757144)"><path d="M0 0 C0.25 0.47, 1.1 1.86, 1.49 2.84 C1.88 3.82, 2.21 5.39, 2.35 5.9 M0 0 C0.25 0.47, 1.1 1.86, 1.49 2.84 C1.88 3.82, 2.21 5.39, 2.35 5.9" stroke="#000000" stroke-width="2" fill="none"></path></g></g><mask></mask><g stroke-linecap="round"><g transform="translate(477.44397358764616 266.69488264361644) rotate(189.0399339200241 2.5896745936981915 6.754860711450647)"><path d="M0 0 C0.55 1.08, 2.41 4.25, 3.28 6.5 C4.14 8.76, 4.86 12.34, 5.18 13.51 M0 0 C0.55 1.08, 2.41 4.25, 3.28 6.5 C4.14 8.76, 4.86 12.34, 5.18 13.51" stroke="#000000" stroke-width="2" fill="none"></path></g></g><mask></mask><g stroke-linecap="round"><g transform="translate(467.9530257665773 255.706256481968) rotate(282.96988736219714 1.1769789749691881 2.948466264757144)"><path d="M0 0 C0.25 0.47, 1.1 1.86, 1.49 2.84 C1.88 3.82, 2.21 5.39, 2.35 5.9 M0 0 C0.25 0.47, 1.1 1.86, 1.49 2.84 C1.88 3.82, 2.21 5.39, 2.35 5.9" stroke="#000000" stroke-width="2" fill="none"></path></g></g><mask></mask><g stroke-linecap="round"><g transform="translate(506.75067358733065 271.3312187944957) rotate(333.9862916166085 0.550658034576827 1.7044907829967997)"><path d="M0 0 C0.12 0.27, 0.51 1.07, 0.7 1.64 C0.88 2.21, 1.03 3.11, 1.1 3.41 M0 0 C0.12 0.27, 0.51 1.07, 0.7 1.64 C0.88 2.21, 1.03 3.11, 1.1 3.41" stroke="#000000" stroke-width="2" fill="none"></path></g></g><mask></mask><g stroke-linecap="round"><g transform="translate(500.3331174823828 274.02716623720517) rotate(28.543690383279422 1.160527539495206 2.8256909879223713)"><path d="M0 0 C0.24 0.45, 1.08 1.78, 1.47 2.72 C1.85 3.66, 2.18 5.16, 2.32 5.65 M0 0 C0.24 0.45, 1.08 1.78, 1.47 2.72 C1.85 3.66, 2.18 5.16, 2.32 5.65" stroke="#000000" stroke-width="2" fill="none"></path></g></g><mask></mask><g stroke-linecap="round"><g transform="translate(502.70984811945834 236.57478365636598) rotate(275.5421197465872 1.062083705421628 3.95231816894443)"><path d="M0 0 C0.22 0.63, 0.99 2.49, 1.34 3.81 C1.7 5.12, 1.99 7.22, 2.12 7.9 M0 0 C0.22 0.63, 0.99 2.49, 1.34 3.81 C1.7 5.12, 1.99 7.22, 2.12 7.9" stroke="#000000" stroke-width="2" fill="none"></path></g></g><mask></mask><g stroke-linecap="round"><g transform="translate(486.35258406461287 233.8991189552853) rotate(344.62490685321484 1.607209184132671 2.718456718256448)"><path d="M0 0 C0.34 0.44, 1.5 1.71, 2.03 2.62 C2.57 3.52, 3.02 4.97, 3.21 5.44 M0 0 C0.34 0.44, 1.5 1.71, 2.03 2.62 C2.57 3.52, 3.02 4.97, 3.21 5.44" stroke="#000000" stroke-width="2" fill="none"></path></g></g><mask></mask><g transform="translate(438.4863245849532 294.025036405259) rotate(0 51.87995147705078 12.5)"><text x="51.87995147705078" y="0" font-family="Virgil, Segoe UI Emoji" font-size="20px" fill="#000000" text-anchor="middle" style="white-space: pre;" direction="ltr" dominant-baseline="text-before-edge">CloudFront</text></g><g stroke-linecap="round" transform="translate(588.7822764282149 225.19196978637137) rotate(0 32.54042053222656 32.54042053222656)"><path d="M0 0 C0 0, 0 0, 0 0 M0 0 C0 0, 0 0, 0 0 M0.13 12.04 C3.52 8.15, 6.9 4.26, 10.63 -0.03 M0.13 12.04 C4.03 7.56, 7.92 3.09, 10.63 -0.03 M0.27 24.08 C7.38 15.9, 14.5 7.71, 21.26 -0.07 M0.27 24.08 C6.56 16.84, 12.86 9.59, 21.26 -0.07 M-0.26 36.88 C10.84 24.11, 21.95 11.34, 31.89 -0.1 M-0.26 36.88 C7.15 28.36, 14.55 19.84, 31.89 -0.1 M-0.12 48.92 C10.05 37.21, 20.23 25.51, 42.52 -0.14 M-0.12 48.92 C16.91 29.33, 33.93 9.74, 42.52 -0.14 M0.01 60.96 C14.9 43.83, 29.79 26.7, 53.15 -0.17 M0.01 60.96 C14.65 44.12, 29.29 27.27, 53.15 -0.17 M6.7 65.45 C28.41 40.48, 50.12 15.51, 63.78 -0.21 M6.7 65.45 C25.19 44.18, 43.68 22.91, 63.78 -0.21 M17.33 65.42 C31.04 49.65, 44.74 33.89, 65.88 9.57 M17.33 65.42 C30.53 50.24, 43.73 35.05, 65.88 9.57 M27.96 65.38 C37.36 54.58, 46.75 43.78, 66.02 21.61 M27.96 65.38 C38.4 53.38, 48.84 41.37, 66.02 21.61 M38.59 65.35 C44.96 58.03, 51.32 50.71, 65.49 34.41 M38.59 65.35 C48.81 53.59, 59.03 41.84, 65.49 34.41 M49.22 65.31 C52.51 61.53, 55.8 57.75, 65.63 46.45 M49.22 65.31 C54.08 59.73, 58.94 54.14, 65.63 46.45 M59.85 65.28 C61.38 63.53, 62.9 61.78, 65.76 58.49 M59.85 65.28 C61.36 63.54, 62.87 61.81, 65.76 58.49 M0.23 65.28 C0.23 65.28, 0.23 65.28, 0.23 65.28 M0.23 65.28 C0.23 65.28, 0.23 65.28, 0.23 65.28 M12.27 65.15 C7.56 61.05, 2.84 56.95, 0.19 54.65 M12.27 65.15 C8.04 61.47, 3.81 57.79, 0.19 54.65 M24.31 65.01 C19.07 60.46, 13.84 55.91, 0.16 44.02 M24.31 65.01 C15.51 57.36, 6.7 49.71, 0.16 44.02 M36.35 64.88 C25.18 55.17, 14.01 45.46, 0.13 33.39 M36.35 64.88 C28.72 58.24, 21.08 51.6, 0.13 33.39 M49.15 65.4 C34.29 52.49, 19.43 39.57, 0.09 22.76 M49.15 65.4 C37.9 55.63, 26.65 45.85, 0.09 22.76 M61.19 65.27 C48.01 53.82, 34.84 42.36, 0.06 12.13 M61.19 65.27 C38.04 45.14, 14.88 25.02, 0.06 12.13 M64.93 57.92 C44 39.73, 23.07 21.53, 0.02 1.5 M64.93 57.92 C51.82 46.53, 38.71 35.13, 0.02 1.5 M65.65 47.95 C46.35 31.18, 27.06 14.4, 9.8 -0.6 M65.65 47.95 C49.37 33.8, 33.1 19.65, 9.8 -0.6 M65.61 37.32 C50.89 24.52, 36.17 11.72, 21.84 -0.74 M65.61 37.32 C54.45 27.61, 43.29 17.91, 21.84 -0.74 M65.58 26.69 C57.3 19.49, 49.02 12.29, 33.88 -0.87 M65.58 26.69 C53.49 16.18, 41.4 5.67, 33.88 -0.87 M65.54 16.06 C60.17 11.38, 54.79 6.71, 46.68 -0.35 M65.54 16.06 C61.66 12.68, 57.77 9.3, 46.68 -0.35 M65.51 5.43 C63.09 3.33, 60.68 1.23, 58.72 -0.48 M65.51 5.43 C62.95 3.2, 60.39 0.98, 58.72 -0.48" stroke="#40c05788" stroke-width="1" fill="none"></path><path d="M0 0 C23.46 0, 46.92 0, 65.08 0 M0 0 C21.33 0, 42.65 0, 65.08 0 M65.08 0 C65.08 15.53, 65.08 31.07, 65.08 65.08 M65.08 0 C65.08 21.08, 65.08 42.17, 65.08 65.08 M65.08 65.08 C43.39 65.08, 21.69 65.08, 0 65.08 M65.08 65.08 C51.98 65.08, 38.87 65.08, 0 65.08 M0 65.08 C0 46.51, 0 27.94, 0 0 M0 65.08 C0 50.31, 0 35.55, 0 0" stroke="#000000" stroke-width="2" fill="none"></path></g><g stroke-linecap="round" transform="translate(602.3951316058739 236.259065811887) rotate(0 19.55281575520837 5.376997727614253)"><path d="M39.11 5.38 C39.11 5.69, 39.01 6, 38.81 6.31 C38.61 6.62, 38.31 6.92, 37.93 7.22 C37.54 7.51, 37.05 7.8, 36.49 8.07 C35.92 8.34, 35.26 8.59, 34.53 8.83 C33.8 9.07, 32.99 9.3, 32.12 9.5 C31.25 9.7, 30.31 9.88, 29.33 10.03 C28.35 10.19, 27.3 10.32, 26.24 10.43 C25.18 10.54, 24.06 10.62, 22.95 10.67 C21.83 10.73, 20.68 10.75, 19.55 10.75 C18.42 10.75, 17.27 10.73, 16.16 10.67 C15.04 10.62, 13.93 10.54, 12.87 10.43 C11.8 10.32, 10.76 10.19, 9.78 10.03 C8.8 9.88, 7.85 9.7, 6.98 9.5 C6.12 9.3, 5.3 9.07, 4.57 8.83 C3.85 8.59, 3.19 8.34, 2.62 8.07 C2.05 7.8, 1.57 7.51, 1.18 7.22 C0.79 6.92, 0.49 6.62, 0.3 6.31 C0.1 6, 0 5.69, 0 5.38 C0 5.07, 0.1 4.75, 0.3 4.44 C0.49 4.14, 0.79 3.83, 1.18 3.54 C1.57 3.25, 2.05 2.96, 2.62 2.69 C3.19 2.42, 3.85 2.16, 4.57 1.92 C5.3 1.68, 6.12 1.46, 6.98 1.26 C7.85 1.06, 8.8 0.88, 9.78 0.72 C10.76 0.56, 11.8 0.43, 12.87 0.32 C13.93 0.22, 15.04 0.14, 16.16 0.08 C17.27 0.03, 18.42 0, 19.55 0 C20.68 0, 21.83 0.03, 22.95 0.08 C24.06 0.14, 25.18 0.22, 26.24 0.32 C27.3 0.43, 28.35 0.56, 29.33 0.72 C30.31 0.88, 31.25 1.06, 32.12 1.26 C32.99 1.46, 33.8 1.68, 34.53 1.92 C35.26 2.16, 35.92 2.42, 36.49 2.69 C37.05 2.96, 37.54 3.25, 37.93 3.54 C38.31 3.83, 38.61 4.14, 38.81 4.44 C39.01 4.75, 39.06 5.22, 39.11 5.38 C39.16 5.53, 39.16 5.22, 39.11 5.38" stroke="#000000" stroke-width="2" fill="none"></path></g><g stroke-linecap="round"><g transform="translate(602.7530480221402 242.13753386076587) rotate(0 19.147886618589723 20.2433107033753)"><path d="M0 0 C0.64 5.36, 2.72 25.82, 3.85 32.15 C4.97 38.48, 4.02 36.6, 6.77 37.99 C9.52 39.38, 16.05 40.42, 20.35 40.49 C24.64 40.56, 30.03 39.82, 32.54 38.4 C35.04 36.98, 34.41 38.33, 35.37 31.94 C36.33 25.56, 37.81 5.41, 38.3 0.1 M0 0 C0.64 5.36, 2.72 25.82, 3.85 32.15 C4.97 38.48, 4.02 36.6, 6.77 37.99 C9.52 39.38, 16.05 40.42, 20.35 40.49 C24.64 40.56, 30.03 39.82, 32.54 38.4 C35.04 36.98, 34.41 38.33, 35.37 31.94 C36.33 25.56, 37.81 5.41, 38.3 0.1" stroke="#000000" stroke-width="2" fill="none"></path></g></g><mask></mask><g stroke-linecap="round" transform="translate(619.5233361080778 252.40003303913818) rotate(0 2.349090576171875 2.349090576171875)"><path d="M4.7 2.35 C4.7 2.49, 4.69 2.62, 4.66 2.76 C4.64 2.89, 4.6 3.02, 4.56 3.15 C4.51 3.28, 4.45 3.41, 4.38 3.52 C4.32 3.64, 4.24 3.75, 4.15 3.86 C4.06 3.96, 3.96 4.06, 3.86 4.15 C3.75 4.24, 3.64 4.32, 3.52 4.38 C3.41 4.45, 3.28 4.51, 3.15 4.56 C3.02 4.6, 2.89 4.64, 2.76 4.66 C2.62 4.69, 2.49 4.7, 2.35 4.7 C2.21 4.7, 2.08 4.69, 1.94 4.66 C1.81 4.64, 1.67 4.6, 1.55 4.56 C1.42 4.51, 1.29 4.45, 1.17 4.38 C1.06 4.32, 0.94 4.24, 0.84 4.15 C0.73 4.06, 0.64 3.96, 0.55 3.86 C0.46 3.75, 0.38 3.64, 0.31 3.52 C0.25 3.41, 0.19 3.28, 0.14 3.15 C0.1 3.02, 0.06 2.89, 0.04 2.76 C0.01 2.62, 0 2.49, 0 2.35 C0 2.21, 0.01 2.08, 0.04 1.94 C0.06 1.81, 0.1 1.67, 0.14 1.55 C0.19 1.42, 0.25 1.29, 0.31 1.17 C0.38 1.06, 0.46 0.94, 0.55 0.84 C0.64 0.73, 0.73 0.64, 0.84 0.55 C0.94 0.46, 1.06 0.38, 1.17 0.31 C1.29 0.25, 1.42 0.19, 1.55 0.14 C1.67 0.1, 1.81 0.06, 1.94 0.04 C2.08 0.01, 2.21 0, 2.35 0 C2.49 0, 2.62 0.01, 2.76 0.04 C2.89 0.06, 3.02 0.1, 3.15 0.14 C3.28 0.19, 3.41 0.25, 3.52 0.31 C3.64 0.38, 3.75 0.46, 3.86 0.55 C3.96 0.64, 4.06 0.73, 4.15 0.84 C4.24 0.94, 4.32 1.06, 4.38 1.17 C4.45 1.29, 4.51 1.42, 4.56 1.55 C4.6 1.67, 4.64 1.81, 4.66 1.94 C4.69 2.08, 4.69 2.28, 4.7 2.35 C4.7 2.42, 4.7 2.28, 4.7 2.35" stroke="none" stroke-width="0" fill="#000"></path><path d="M4.7 2.35 C4.7 2.49, 4.69 2.62, 4.66 2.76 C4.64 2.89, 4.6 3.02, 4.56 3.15 C4.51 3.28, 4.45 3.41, 4.38 3.52 C4.32 3.64, 4.24 3.75, 4.15 3.86 C4.06 3.96, 3.96 4.06, 3.86 4.15 C3.75 4.24, 3.64 4.32, 3.52 4.38 C3.41 4.45, 3.28 4.51, 3.15 4.56 C3.02 4.6, 2.89 4.64, 2.76 4.66 C2.62 4.69, 2.49 4.7, 2.35 4.7 C2.21 4.7, 2.08 4.69, 1.94 4.66 C1.81 4.64, 1.67 4.6, 1.55 4.56 C1.42 4.51, 1.29 4.45, 1.17 4.38 C1.06 4.32, 0.94 4.24, 0.84 4.15 C0.73 4.06, 0.64 3.96, 0.55 3.86 C0.46 3.75, 0.38 3.64, 0.31 3.52 C0.25 3.41, 0.19 3.28, 0.14 3.15 C0.1 3.02, 0.06 2.89, 0.04 2.76 C0.01 2.62, 0 2.49, 0 2.35 C0 2.21, 0.01 2.08, 0.04 1.94 C0.06 1.81, 0.1 1.67, 0.14 1.55 C0.19 1.42, 0.25 1.29, 0.31 1.17 C0.38 1.06, 0.46 0.94, 0.55 0.84 C0.64 0.73, 0.73 0.64, 0.84 0.55 C0.94 0.46, 1.06 0.38, 1.17 0.31 C1.29 0.25, 1.42 0.19, 1.55 0.14 C1.67 0.1, 1.81 0.06, 1.94 0.04 C2.08 0.01, 2.21 0, 2.35 0 C2.49 0, 2.62 0.01, 2.76 0.04 C2.89 0.06, 3.02 0.1, 3.15 0.14 C3.28 0.19, 3.41 0.25, 3.52 0.31 C3.64 0.38, 3.75 0.46, 3.86 0.55 C3.96 0.64, 4.06 0.73, 4.15 0.84 C4.24 0.94, 4.32 1.06, 4.38 1.17 C4.45 1.29, 4.51 1.42, 4.56 1.55 C4.6 1.67, 4.64 1.81, 4.66 1.94 C4.69 2.08, 4.69 2.28, 4.7 2.35 C4.7 2.42, 4.7 2.28, 4.7 2.35" stroke="#000000" stroke-width="1" fill="none"></path></g><g stroke-linecap="round"><g transform="translate(622.0134545162808 254.97302345661865) rotate(0 11.623458862304688 5.765568542480423)"><path d="M0 0 C1.17 1.24, 4.19 5.51, 7.02 7.44 C9.86 9.36, 14.35 11.08, 17 11.53 C19.66 11.98, 21.88 11.08, 22.92 10.14 C23.96 9.2, 24.07 7.29, 23.25 5.89 C22.42 4.49, 18.84 2.45, 17.96 1.76 M0 0 C1.17 1.24, 4.19 5.51, 7.02 7.44 C9.86 9.36, 14.35 11.08, 17 11.53 C19.66 11.98, 21.88 11.08, 22.92 10.14 C23.96 9.2, 24.07 7.29, 23.25 5.89 C22.42 4.49, 18.84 2.45, 17.96 1.76" stroke="#000000" stroke-width="2" fill="none"></path></g></g><mask></mask><g transform="translate(569.472736633293 294.36221438909433) rotate(0 51.84996032714844 12.5)"><text x="51.84996032714844" y="0" font-family="Virgil, Segoe UI Emoji" font-size="20px" fill="#000000" text-anchor="middle" style="white-space: pre;" direction="ltr" dominant-baseline="text-before-edge">S3 Bucket</text></g><g stroke-opacity="0" fill-opacity="0" stroke-linecap="round" transform="translate(846.0282028590747 208.07726340595718) rotate(0 58.37866158183567 58.37866158183556)"><path d="M49.67 0.44 C58.13 -2, 68.9 -0.55, 77.34 2.41 C85.79 5.37, 94.18 11.76, 100.32 18.2 C106.46 24.63, 111.7 32.45, 114.17 41 C116.64 49.55, 116.83 60.41, 115.13 69.5 C113.42 78.59, 109.46 88.29, 103.93 95.54 C98.41 102.79, 90.34 109.33, 81.98 112.99 C73.62 116.64, 62.8 118.19, 53.79 117.47 C44.78 116.76, 35.45 113.76, 27.93 108.68 C20.42 103.6, 13.22 95.04, 8.68 87 C4.14 78.96, 1.28 69.28, 0.68 60.45 C0.08 51.63, 1.34 42.17, 5.08 34.06 C8.83 25.96, 14.1 17.35, 23.17 11.84 C32.25 6.33, 52.11 2.78, 59.54 0.99 C66.96 -0.8, 67.78 0.44, 67.74 1.1 M78.8 3.37 C86.89 5.01, 93.6 10.69, 99.65 17.03 C105.7 23.36, 112.56 32.24, 115.11 41.4 C117.67 50.55, 117.2 62.85, 114.96 71.97 C112.72 81.1, 107.39 89.59, 101.67 96.16 C95.95 102.73, 88.56 107.83, 80.62 111.39 C72.69 114.96, 62.83 118.2, 54.05 117.56 C45.26 116.93, 35.57 112.89, 27.92 107.57 C20.28 102.24, 12.61 93.64, 8.19 85.63 C3.77 77.62, 1.87 68.19, 1.41 59.49 C0.95 50.8, 1.82 41.43, 5.43 33.46 C9.05 25.48, 15.47 17.27, 23.08 11.63 C30.69 6, 42.08 1.23, 51.08 -0.36 C60.08 -1.95, 72.96 1.18, 77.1 2.1 C81.24 3.02, 76.26 4.05, 75.92 5.15" stroke="#1e1e1e" stroke-width="1" fill="none"></path></g><g stroke-linecap="round" transform="translate(898.6947349886135 224.60403040757546) rotate(0 7.030313172057731 7.030313172057731)"><path d="M8.4 -0.19 C9.75 -0.01, 11.36 1.47, 12.28 2.57 C13.2 3.66, 13.94 4.93, 13.94 6.37 C13.94 7.81, 13.18 9.93, 12.28 11.22 C11.38 12.51, 9.92 13.69, 8.53 14.1 C7.15 14.51, 5.3 14.36, 3.95 13.68 C2.61 13, 1.01 11.44, 0.46 10.04 C-0.08 8.63, 0.14 6.78, 0.69 5.22 C1.24 3.66, 2.44 1.57, 3.76 0.68 C5.09 -0.21, 7.88 -0.08, 8.63 -0.09 C9.38 -0.11, 8.34 0.44, 8.26 0.59 M7.93 0.7 C9.11 1.07, 10.92 2.12, 11.98 3.3 C13.04 4.48, 14.15 6.36, 14.29 7.8 C14.42 9.23, 13.97 10.98, 12.8 11.89 C11.62 12.81, 8.78 13.24, 7.22 13.29 C5.66 13.34, 4.63 12.81, 3.43 12.21 C2.24 11.61, 0.67 10.99, 0.07 9.69 C-0.53 8.4, -0.81 6.01, -0.18 4.44 C0.45 2.87, 2.3 0.9, 3.85 0.28 C5.41 -0.34, 8.25 0.68, 9.15 0.71 C10.05 0.74, 9.31 0.52, 9.26 0.44" stroke="#1e1e1e" stroke-width="1" fill="none"></path></g><g stroke-linecap="round" transform="translate(898.6947349886135 246.13436449700203) rotate(0 7.030313172057731 7.030313172057731)"><path d="M6.41 0.21 C7.76 -0.04, 9.77 -0.02, 10.96 0.79 C12.16 1.59, 13.16 3.46, 13.59 5.03 C14.01 6.6, 14.06 8.72, 13.51 10.2 C12.96 11.68, 11.66 13.21, 10.27 13.89 C8.88 14.57, 6.62 14.66, 5.17 14.26 C3.72 13.86, 2.37 12.85, 1.57 11.49 C0.78 10.12, 0.28 7.66, 0.42 6.05 C0.56 4.44, 1.34 2.79, 2.39 1.83 C3.44 0.87, 5.86 0.57, 6.69 0.29 C7.53 0.01, 7.3 0.02, 7.42 0.17 M5.59 0.55 C7.15 0.28, 9.69 0.81, 11.16 1.57 C12.63 2.34, 14.13 3.86, 14.4 5.12 C14.67 6.38, 13.47 7.88, 12.81 9.13 C12.14 10.38, 11.66 11.72, 10.38 12.61 C9.11 13.5, 6.76 14.68, 5.14 14.47 C3.51 14.26, 1.48 12.75, 0.63 11.35 C-0.22 9.96, -0.28 7.54, 0.03 6.1 C0.34 4.66, 1.33 3.7, 2.48 2.71 C3.63 1.72, 6.24 0.69, 6.93 0.16 C7.62 -0.37, 6.61 -0.53, 6.63 -0.47" stroke="#1e1e1e" stroke-width="1" fill="none"></path></g><g stroke-linecap="round" transform="translate(898.6947349886135 266.34651486666826) rotate(0 7.030313172057731 7.030313172057731)"><path d="M5.95 -0.43 C7.32 -0.78, 9.22 -0.04, 10.53 0.87 C11.85 1.79, 13.29 3.5, 13.84 5.05 C14.39 6.6, 14.42 8.72, 13.83 10.16 C13.24 11.6, 11.62 12.99, 10.3 13.69 C8.97 14.39, 7.27 14.79, 5.87 14.35 C4.46 13.9, 2.8 12.3, 1.87 11 C0.95 9.7, 0.37 7.96, 0.32 6.56 C0.27 5.16, 0.56 3.69, 1.57 2.6 C2.58 1.52, 5.45 0.38, 6.38 0.05 C7.31 -0.27, 7.19 0.6, 7.17 0.64 M8.47 0.5 C10.11 0.59, 12.21 1.6, 13.03 2.57 C13.85 3.54, 13.46 4.93, 13.4 6.3 C13.33 7.68, 13.55 9.45, 12.66 10.82 C11.76 12.2, 9.67 14.15, 8.03 14.56 C6.38 14.97, 4.05 14.21, 2.79 13.28 C1.53 12.35, 0.75 10.31, 0.44 8.96 C0.14 7.61, 0.34 6.48, 0.96 5.17 C1.58 3.85, 2.91 2.02, 4.18 1.07 C5.46 0.11, 7.81 -0.37, 8.6 -0.55 C9.39 -0.73, 9.03 -0.3, 8.91 -0.01" stroke="#1e1e1e" stroke-width="1" fill="none"></path></g><g stroke-linecap="round" transform="translate(867.6075689309208 234.27071101915453) rotate(0 7.030313172057731 7.030313172057731)"><path d="M7.43 -0.18 C8.9 -0.02, 10.99 1.07, 12.14 2.25 C13.29 3.44, 14.22 5.38, 14.33 6.92 C14.43 8.47, 13.62 10.31, 12.76 11.53 C11.89 12.75, 10.53 14.02, 9.14 14.27 C7.75 14.52, 5.79 13.79, 4.43 13.04 C3.06 12.29, 1.7 11.03, 0.96 9.77 C0.22 8.51, -0.34 6.89, 0 5.48 C0.34 4.06, 1.62 2.1, 3.01 1.28 C4.4 0.46, 7.53 0.8, 8.34 0.55 C9.15 0.29, 7.89 -0.19, 7.86 -0.23 M8.82 0.17 C10.1 0.13, 10.81 0.74, 11.72 1.75 C12.63 2.77, 14.21 4.54, 14.29 6.26 C14.38 7.99, 13.33 10.81, 12.21 12.12 C11.09 13.42, 9.01 14.01, 7.57 14.1 C6.13 14.19, 4.67 13.34, 3.57 12.66 C2.48 11.98, 1.4 11.32, 0.98 10.01 C0.57 8.7, 0.61 6.41, 1.08 4.79 C1.56 3.17, 2.53 1.14, 3.83 0.31 C5.13 -0.51, 8.21 -0.21, 8.89 -0.16 C9.58 -0.11, 8.12 0.43, 7.92 0.61" stroke="#1e1e1e" stroke-width="1" fill="none"></path></g><g stroke-linecap="round" transform="translate(867.6075689309208 255.58134782195475) rotate(0 7.030313172057731 7.030313172057731)"><path d="M5.42 0.39 C6.87 0.07, 9.04 0.48, 10.37 1.18 C11.71 1.88, 12.8 3.22, 13.42 4.59 C14.04 5.95, 14.45 8.06, 14.11 9.38 C13.77 10.7, 12.63 11.75, 11.38 12.49 C10.13 13.23, 8.25 13.86, 6.64 13.81 C5.04 13.77, 2.86 13.27, 1.75 12.23 C0.65 11.19, 0.01 9.04, 0.01 7.58 C0.01 6.11, 0.89 4.73, 1.78 3.42 C2.66 2.11, 4.6 0.3, 5.33 -0.3 C6.07 -0.9, 6.07 -0.42, 6.19 -0.2 M7.29 -0.66 C8.66 -0.69, 11.37 0.24, 12.45 1.57 C13.54 2.9, 13.92 5.69, 13.82 7.34 C13.72 8.99, 12.74 10.46, 11.87 11.47 C10.99 12.48, 9.81 13.02, 8.56 13.41 C7.3 13.8, 5.54 14.39, 4.32 13.79 C3.09 13.19, 1.81 11.42, 1.21 9.83 C0.6 8.24, 0.23 5.75, 0.69 4.25 C1.15 2.75, 2.79 1.47, 3.95 0.84 C5.12 0.2, 7.1 0.52, 7.7 0.44 C8.3 0.36, 7.4 0.41, 7.54 0.38" stroke="#1e1e1e" stroke-width="1" fill="none"></path></g><g stroke-linecap="round" transform="translate(927.1455336067842 246.13436449700203) rotate(0 7.030313172057731 7.030313172057731)"><path d="M6.6 0.52 C7.99 0.33, 9.7 0.82, 10.95 1.66 C12.21 2.5, 13.63 4.23, 14.11 5.55 C14.59 6.87, 14.45 8.29, 13.84 9.56 C13.22 10.82, 11.87 12.38, 10.41 13.14 C8.95 13.91, 6.59 14.47, 5.07 14.14 C3.56 13.81, 2.09 12.36, 1.33 11.17 C0.56 9.99, 0.4 8.6, 0.47 7.02 C0.54 5.44, 0.71 2.92, 1.76 1.68 C2.82 0.44, 5.94 -0.19, 6.81 -0.42 C7.68 -0.65, 6.97 0.05, 6.96 0.31 M7.42 -0.72 C8.93 -0.55, 10.46 1.22, 11.43 2.35 C12.4 3.49, 12.97 4.81, 13.24 6.12 C13.51 7.43, 13.62 8.85, 13.05 10.2 C12.48 11.55, 11.14 13.63, 9.83 14.22 C8.51 14.8, 6.59 14.44, 5.15 13.7 C3.72 12.95, 1.95 11.14, 1.22 9.75 C0.5 8.37, 0.64 6.7, 0.83 5.4 C1.02 4.09, 1.38 2.79, 2.38 1.92 C3.37 1.05, 5.87 0.56, 6.79 0.18 C7.7 -0.2, 7.83 -0.35, 7.86 -0.36" stroke="#1e1e1e" stroke-width="1" fill="none"></path></g><g stroke-linecap="round"><g transform="translate(879.6909196953951 236.68738117204975) rotate(0 9.552232531263712 -2.3079713688321135)"><path d="M0 0 C4.08 -0.54, 8.24 -0.87, 19.1 -4.62 M0 0 C6.07 -1.04, 10.96 -2.49, 19.1 -4.62" stroke="#1e1e1e" stroke-width="1" fill="none"></path></g></g><mask></mask><g stroke-linecap="round"><g transform="translate(912.8675096945434 232.07603787138805) rotate(0 9.125339679061199 7.778256549629305)"><path d="M0 0 C5.33 4.95, 9.43 8.92, 18.25 15.56 M0 0 C6.35 5.89, 13.12 10.99, 18.25 15.56" stroke="#1e1e1e" stroke-width="1" fill="none"></path></g></g><mask></mask><g stroke-linecap="round"><g transform="translate(912.8652099760424 253.17559875385632) rotate(0 7.267840694045276 0.1086987840628808)"><path d="M0 0 C4.85 0.65, 10.21 0.72, 14.54 0.22 M0 0 C5.34 -0.14, 11.2 0.11, 14.54 0.22" stroke="#1e1e1e" stroke-width="1" fill="none"></path></g></g><mask></mask><g stroke-linecap="round"><g transform="translate(911.7736226984117 271.3995524590846) rotate(0 8.278908156228681 -6.151524025550543)"><path d="M0 0 C7.19 -4.06, 13.89 -10.51, 16.56 -12.3 M0 0 C6.32 -4.43, 12.06 -8.43, 16.56 -12.3" stroke="#1e1e1e" stroke-width="1" fill="none"></path></g></g><mask></mask><g stroke-linecap="round"><g transform="translate(882.1075898482899 240.4222350447053) rotate(0 8.544614646831974 4.8557699781526935)"><path d="M0 0 C7.45 3.02, 13.95 7.07, 17.09 9.71 M0 0 C4.34 2.89, 9.09 4.66, 17.09 9.71" stroke="#1e1e1e" stroke-width="1" fill="none"></path></g></g><mask></mask><g stroke-linecap="round"><g transform="translate(879.9106169820219 245.69496992374843) rotate(0 9.795509349504073 11.511677875544365)"><path d="M0 0 C8.33 8.59, 14.82 18.53, 19.59 23.02 M0 0 C6.34 6.55, 11.23 13.99, 19.59 23.02" stroke="#1e1e1e" stroke-width="1" fill="none"></path></g></g><mask></mask><g stroke-linecap="round"><g transform="translate(880.708886313082 257.9577580671262) rotate(0 10.033036871491504 -10.742737372350575)"><path d="M0 0 C4.07 -4.33, 9.17 -9.82, 20.07 -21.49 M0 0 C7.28 -8.01, 15.13 -16.41, 20.07 -21.49" stroke="#1e1e1e" stroke-width="1" fill="none"></path></g></g><mask></mask><g stroke-linecap="round"><g transform="translate(881.4484979884095 262.39196370738546) rotate(0 9.077222806217037 -3.2977223352268084)"><path d="M0 0 C4.68 -1.71, 10.25 -2.5, 18.15 -6.6 M0 0 C4.24 -1.43, 9.46 -3.18, 18.15 -6.6" stroke="#1e1e1e" stroke-width="1" fill="none"></path></g></g><mask></mask><g stroke-linecap="round"><g transform="translate(879.228894763893 265.3284576111246) rotate(0 9.564697569638497 4.351431425239753)"><path d="M0 0 C7.75 4.1, 13.24 5.31, 19.13 8.7 M0 0 C7.18 3.41, 14.5 6.41, 19.13 8.7" stroke="#1e1e1e" stroke-width="1" fill="none"></path></g></g><mask></mask><g transform="translate(828.4869273071212 285.47692076950807) rotate(0 75.91993713378906 25)"><text x="75.91993713378906" y="0" font-family="Virgil, Segoe UI Emoji" font-size="20px" fill="#1e1e1e" text-anchor="middle" style="white-space: pre;" direction="ltr" dominant-baseline="text-before-edge">OpenAI</text><text x="75.91993713378906" y="25" font-family="Virgil, Segoe UI Emoji" font-size="20px" fill="#1e1e1e" text-anchor="middle" style="white-space: pre;" direction="ltr" dominant-baseline="text-before-edge">Embeddings API</text></g><g stroke-opacity="0" fill-opacity="0" stroke-linecap="round" transform="translate(1134.094731179387 208.57726340595718) rotate(0 58.37866158183567 58.37866158183556)"><path d="M38.69 3.47 C46.34 -0.37, 57.49 -1.22, 66.61 0.04 C75.72 1.3, 85.94 5.59, 93.37 11.02 C100.8 16.46, 107.29 24.64, 111.16 32.65 C115.04 40.66, 117 50.2, 116.62 59.09 C116.23 67.97, 113.31 77.95, 108.86 85.98 C104.41 94.01, 97.49 102.1, 89.92 107.29 C82.35 112.48, 72.47 116.3, 63.45 117.11 C54.43 117.92, 44.08 115.56, 35.79 112.14 C27.5 108.72, 19.51 103.39, 13.71 96.6 C7.92 89.8, 2.9 80.21, 1.04 71.39 C-0.81 62.57, 0.16 52.41, 2.57 43.67 C4.98 34.92, 9.19 25.65, 15.5 18.92 C21.81 12.2, 35.84 5.88, 40.45 3.3 C45.07 0.72, 42.88 2.69, 43.17 3.45 M51.82 -1.12 C59.96 -2.78, 71.34 0.39, 79.85 3.91 C88.37 7.44, 97.13 13.15, 102.9 20.04 C108.68 26.93, 112.4 36.17, 114.49 45.27 C116.59 54.38, 117.6 66, 115.5 74.68 C113.39 83.36, 108.25 90.96, 101.88 97.34 C95.51 103.72, 86.2 109.72, 77.28 112.96 C68.37 116.19, 57.22 117.84, 48.4 116.76 C39.58 115.68, 31.53 111.92, 24.35 106.46 C17.17 101, 9.41 92.55, 5.33 84 C1.25 75.45, -0.57 64.15, -0.12 55.15 C0.33 46.16, 3.41 37.59, 8.04 30.02 C12.67 22.45, 20.01 14.96, 27.66 9.75 C35.3 4.53, 49.61 0.25, 53.89 -1.26 C58.17 -2.77, 53.57 -0.37, 53.33 0.68" stroke="#1e1e1e" stroke-width="1" fill="none"></path></g><g stroke-linecap="round"><g transform="translate(1167.232077112033 225.6154985670255) rotate(0 25.196226156146963 26.38119718824305)"><path d="M0 0 C17.89 1.22, 31.92 0.62, 41.54 0 M0 0 C11.37 0.17, 23.13 -0.4, 41.54 0 M41.54 0 C43 1.91, 44.89 4.32, 50.39 7.73 M41.54 0 C44.03 1.7, 46.1 4.09, 50.39 7.73 M50.39 7.73 C49.44 25.39, 50.46 40.99, 50.39 52.76 M50.39 7.73 C50.97 18.83, 49.33 29.49, 50.39 52.76 M50.39 52.76 C37.17 51.34, 25.43 53.84, 0.5 52.76 M50.39 52.76 C33.52 51.98, 16 52.85, 0.5 52.76 M0.5 52.76 C0.11 34.54, -2.08 17.34, 0 0 M0.5 52.76 C0.5 34.59, -0.11 17.93, 0 0" stroke="#1e1e1e" stroke-width="1" fill="none"></path></g></g><mask></mask><g stroke-linecap="round" transform="translate(1176.4623777830966 252.0590626516946) rotate(0 16.71432824219653 10.477638599585816)"><path d="M0 0 C7.43 0.09, 15.31 -0.66, 33.43 0 M0 0 C12.3 -0.14, 24.11 -0.34, 33.43 0 M33.43 0 C32.84 5.25, 32.83 8.97, 33.43 20.96 M33.43 0 C33.71 6.48, 33.81 12.37, 33.43 20.96 M33.43 20.96 C22.4 21.26, 10.76 20.69, 0 20.96 M33.43 20.96 C23.55 20.47, 14.26 20.73, 0 20.96 M0 20.96 C-0.54 15.78, 0.44 10.1, 0 0 M0 20.96 C-0.37 16.43, 0.21 11.83, 0 0" stroke="#1e1e1e" stroke-width="1" fill="none"></path></g><g stroke-linecap="round" transform="translate(1182.3248660471509 229.23277855973947) rotate(0 12.223911699516862 7.671128260411024)"><path d="M0 0 C8.26 -0.6, 17.63 -0.16, 24.45 0 M0 0 C8.05 -0.25, 16.44 -0.2, 24.45 0 M24.45 0 C23.98 4.48, 24.38 9.86, 24.45 15.34 M24.45 0 C24.73 4.04, 24.6 8.03, 24.45 15.34 M24.45 15.34 C15.12 15, 6.57 16.11, 0 15.34 M24.45 15.34 C17.38 15.05, 10.8 14.89, 0 15.34 M0 15.34 C0.33 12.27, -0.52 8.1, 0 0 M0 15.34 C0.22 11.66, -0.08 7.46, 0 0" stroke="#1e1e1e" stroke-width="1" fill="none"></path></g><g stroke-linecap="round" transform="translate(1196.669252225155 232.351123381045) rotate(0 2.4946758570442853 3.9291144748447095)"><path d="M0 0 C1.69 -0.01, 3.23 0.03, 4.99 0 M0 0 C1.37 -0.03, 2.88 -0.04, 4.99 0 M4.99 0 C4.97 3, 4.89 5.81, 4.99 7.86 M4.99 0 C5.05 2.7, 5.09 5.53, 4.99 7.86 M4.99 7.86 C3.36 7.98, 1.75 7.7, 0 7.86 M4.99 7.86 C3.92 7.8, 2.84 7.8, 0 7.86 M0 7.86 C-0.2 5.02, -0.12 2, 0 0 M0 7.86 C-0.06 5.16, -0.02 2.31, 0 0" stroke="#1e1e1e" stroke-width="1" fill="none"></path></g><g transform="translate(1123.5934565429611 284.97692076950807) rotate(0 68.87993621826172 25)"><text x="68.87993621826172" y="0" font-family="Virgil, Segoe UI Emoji" font-size="20px" fill="#1e1e1e" text-anchor="middle" style="white-space: pre;" direction="ltr" dominant-baseline="text-before-edge">Astra DB</text><text x="68.87993621826172" y="25" font-family="Virgil, Segoe UI Emoji" font-size="20px" fill="#1e1e1e" text-anchor="middle" style="white-space: pre;" direction="ltr" dominant-baseline="text-before-edge">Node.js Driver</text></g><g stroke-opacity="0" fill-opacity="0" stroke-linecap="round" transform="translate(1495.8822067653246 208.40884848876203) rotate(0 58.37866158183567 58.37866158183556)"><path d="M67.54 1.1 C76.16 1.56, 86.14 6.69, 93.33 12.13 C100.52 17.57, 106.86 25.67, 110.69 33.75 C114.53 41.83, 116.6 51.62, 116.34 60.61 C116.09 69.6, 113.62 79.77, 109.17 87.71 C104.71 95.66, 97.24 103.47, 89.61 108.27 C81.97 113.07, 72.39 115.69, 63.36 116.5 C54.33 117.3, 43.84 116.66, 35.43 113.11 C27.01 109.55, 18.7 102.3, 12.86 95.15 C7.03 88, 2.31 78.91, 0.39 70.21 C-1.54 61.5, -1.29 51.61, 1.31 42.92 C3.92 34.23, 9.55 24.8, 16.01 18.06 C22.47 11.32, 29.92 5.09, 40.07 2.47 C50.21 -0.15, 69.57 1.61, 76.9 2.35 C84.22 3.08, 84.4 5.87, 84 6.91 M35.67 3.22 C43.14 -0.94, 53.75 -1.52, 62.94 -0.31 C72.14 0.91, 83.12 5.51, 90.85 10.51 C98.57 15.5, 104.98 22.3, 109.3 29.68 C113.61 37.07, 116.41 45.81, 116.72 54.81 C117.03 63.82, 114.9 75.51, 111.18 83.71 C107.45 91.91, 101.65 98.43, 94.38 104.01 C87.1 109.58, 76.58 115.7, 67.5 117.19 C58.41 118.67, 48.16 116.07, 39.87 112.89 C31.57 109.72, 23.81 104.74, 17.73 98.14 C11.64 91.54, 5.98 81.66, 3.36 73.31 C0.74 64.96, 0.45 56.58, 1.99 48.04 C3.54 39.5, 6.94 29.51, 12.64 22.08 C18.34 14.65, 32.05 5.99, 36.19 3.46 C40.32 0.92, 37.1 5.83, 37.47 6.85" stroke="#1e1e1e" stroke-width="1" fill="none"></path></g><g transform="translate(1461.7609446411057 285.1453356867037) rotate(0 92.49992370605469 25)"><text x="92.49992370605469" y="0" font-family="Virgil, Segoe UI Emoji" font-size="20px" fill="#1e1e1e" text-anchor="middle" style="white-space: pre;" direction="ltr" dominant-baseline="text-before-edge">Astra DB</text><text x="92.49992370605469" y="25" font-family="Virgil, Segoe UI Emoji" font-size="20px" fill="#1e1e1e" text-anchor="middle" style="white-space: pre;" direction="ltr" dominant-baseline="text-before-edge">with Vector Search</text></g><g stroke-linecap="round"><g transform="translate(1529.3480528203008 241.48484020239994) rotate(0 21.451646467987985 11.061600613996688)"><path d="M0.96 -0.15 C0.97 4.57, 0.22 22.72, 0.43 28.23 C0.64 33.75, 0.94 31.41, 2.21 32.97 C3.47 34.53, 5.78 36.27, 8.01 37.6 C10.24 38.92, 12.54 40.45, 15.6 40.9 C18.67 41.35, 23.04 40.95, 26.42 40.29 C29.79 39.64, 33.42 38.3, 35.84 36.97 C38.27 35.63, 39.68 33.97, 40.97 32.29 C42.25 30.61, 43.28 30.68, 43.54 26.9 C43.8 23.12, 42.63 15.25, 42.54 9.6 C42.44 3.95, 42.84 -3.43, 42.99 -7.01 C43.14 -10.59, 44.3 -10.52, 43.42 -11.9 C42.55 -13.28, 40.62 -14.27, 37.72 -15.29 C34.83 -16.31, 29.93 -17.44, 26.03 -18.03 C22.14 -18.61, 17.81 -19.12, 14.36 -18.8 C10.91 -18.48, 7.53 -17.1, 5.34 -16.11 C3.15 -15.11, 2.05 -14.36, 1.23 -12.83 C0.42 -11.31, 0.65 -8.91, 0.47 -6.97 C0.28 -5.02, 0.22 -2.25, 0.12 -1.15 M0 -1.27 C-0.15 3.65, -0.58 23.85, -0.29 29.74 C0 35.62, 0.27 32.58, 1.74 34.04 C3.21 35.49, 6.49 37.24, 8.55 38.47 C10.61 39.69, 10.87 41.28, 14.11 41.41 C17.34 41.53, 24.17 40.17, 27.96 39.23 C31.75 38.28, 34.87 36.98, 36.86 35.75 C38.85 34.52, 38.96 32.99, 39.9 31.86 C40.84 30.73, 41.95 32.22, 42.49 28.96 C43.04 25.7, 43.03 18.23, 43.17 12.3 C43.31 6.37, 43.48 -2.51, 43.36 -6.64 C43.24 -10.76, 43.35 -10.9, 42.46 -12.46 C41.56 -14.01, 40.91 -15.04, 37.99 -15.96 C35.08 -16.87, 28.92 -17.35, 24.98 -17.95 C21.04 -18.55, 17.51 -20.05, 14.36 -19.55 C11.21 -19.05, 8.46 -16.12, 6.08 -14.96 C3.69 -13.8, 1.17 -13.95, 0.05 -12.59 C-1.07 -11.23, -0.42 -8.63, -0.63 -6.78 C-0.84 -4.93, -1.36 -2.84, -1.21 -1.5" stroke="#1e1e1e" stroke-width="1" fill="none"></path></g></g><mask></mask><g stroke-linecap="round"><g transform="translate(1529.6763943478722 231.6967538156223) rotate(0 21.396922880059492 4.432610622211769)"><path d="M0.2 -0.03 C0.93 0.8, 2.31 3.53, 4.86 4.93 C7.4 6.32, 11.87 7.66, 15.47 8.33 C19.07 9.01, 22.95 9.38, 26.46 8.97 C29.98 8.56, 33.79 7.18, 36.56 5.89 C39.34 4.59, 42.09 2.02, 43.12 1.2 M-0.37 -0.52 C0.28 0.39, 1.95 3.96, 4.56 5.52 C7.16 7.07, 11.59 8.16, 15.26 8.83 C18.93 9.5, 23.12 9.99, 26.57 9.53 C30.02 9.06, 33.34 7.51, 35.96 6.06 C38.57 4.6, 41.08 1.74, 42.26 0.79" stroke="#1e1e1e" stroke-width="1" fill="none"></path></g></g><mask></mask><g stroke-linecap="round"><g transform="translate(1529.3249938989638 240.96003396415472) rotate(0 21.396922880059492 4.432610622211769)"><path d="M0.26 -0.22 C1.04 0.61, 2.37 3.46, 4.86 4.94 C7.35 6.42, 11.57 7.99, 15.19 8.64 C18.82 9.29, 23.01 9.28, 26.6 8.84 C30.2 8.41, 34.08 7.33, 36.77 6.02 C39.46 4.72, 41.66 1.87, 42.76 1.02 M-0.27 -0.8 C0.44 0.1, 2.04 3.85, 4.56 5.54 C7.08 7.22, 11.13 8.66, 14.83 9.3 C18.54 9.93, 23.2 9.84, 26.78 9.33 C30.35 8.83, 33.5 7.73, 36.27 6.26 C39.04 4.78, 42.39 1.24, 43.38 0.5" stroke="#1e1e1e" stroke-width="1" fill="none"></path></g></g><mask></mask><g stroke-linecap="round"><g transform="translate(1529.0241737584151 247.671279071742) rotate(0 21.396922880059492 4.432610622211769)"><path d="M0.26 -0.2 C0.98 0.71, 2.06 3.8, 4.58 5.25 C7.09 6.7, 11.63 7.89, 15.33 8.52 C19.04 9.14, 23.3 9.42, 26.81 8.98 C30.32 8.53, 33.66 7.18, 36.41 5.83 C39.17 4.49, 42.29 1.77, 43.34 0.91 M-0.27 -0.78 C0.35 -0.03, 1.58 2.69, 4.13 4.34 C6.69 5.99, 11.22 8.24, 15.04 9.1 C18.87 9.97, 23.64 10.06, 27.09 9.53 C30.54 9.01, 33.14 7.5, 35.72 5.97 C38.31 4.44, 41.4 1.08, 42.59 0.34" stroke="#1e1e1e" stroke-width="1" fill="none"></path></g></g><mask></mask><g mask="url(#mask-v5axr0_Mz76gR65-u3L-J)" stroke-linecap="round"><g stroke-opacity="0.5" fill-opacity="0.5" transform="translate(1197.9699747924728 840.7070617675781) rotate(0 179.2811279296875 0)"><path d="M0 0 C141.21 -2.02, 282.89 -1.77, 358.56 0 M0 0 C95.74 -0.4, 191.89 -0.88, 358.56 0" stroke="#1e1e1e" stroke-width="1" fill="none"></path></g><g stroke-opacity="0.5" fill-opacity="0.5" transform="translate(1197.9699747924728 840.7070617675781) rotate(0 179.2811279296875 0)"><path d="M330.34 10.16 C341.65 5.68, 353.77 2.08, 358.56 0 M330.34 10.16 C337.32 8.05, 345 4.58, 358.56 0" stroke="#1e1e1e" stroke-width="1" fill="none"></path></g><g stroke-opacity="0.5" fill-opacity="0.5" transform="translate(1197.9699747924728 840.7070617675781) rotate(0 179.2811279296875 0)"><path d="M330.41 -10.36 C341.79 -6.77, 353.89 -2.29, 358.56 0 M330.41 -10.36 C337.47 -6.97, 345.13 -4.94, 358.56 0" stroke="#1e1e1e" stroke-width="1" fill="none"></path></g></g><mask id="mask-v5axr0_Mz76gR65-u3L-J"><rect x="0" y="0" fill="#fff" width="1656.5322306518478" height="940.7070617675781"></rect><rect x="1305.411167419426" y="828.2070617675781" fill="#000" width="143.67987060546875" height="25" opacity="1"></rect></mask><g transform="translate(1305.411167419426 828.2070617675781) rotate(0 71.83993530273438 11.788947482872572)"><text x="71.83993530273438" y="0" font-family="Virgil, Segoe UI Emoji" font-size="20px" fill="#1e1e1e" text-anchor="middle" style="white-space: pre;" direction="ltr" dominant-baseline="text-before-edge">Execute Query</text></g><g mask="url(#mask-k1Qaph_cLKDKjzkKnPhBq)" stroke-linecap="round"><g transform="translate(1556.8751261596603 879.7974548339844) rotate(0 -500.2111511230469 0)"><path d="M0 0 C-316.76 -1.64, -632.93 -2.67, -1000.42 0" stroke="#1e1e1e" stroke-width="1.5" fill="none" stroke-dasharray="8 9"></path></g><g transform="translate(1556.8751261596603 879.7974548339844) rotate(0 -500.2111511230469 0)"><path d="M-972.28 -10.39 C-981.43 -6.29, -989.07 -5.56, -1000.42 0" stroke="#1e1e1e" stroke-width="1.5" fill="none"></path></g><g transform="translate(1556.8751261596603 879.7974548339844) rotate(0 -500.2111511230469 0)"><path d="M-972.18 10.13 C-981.3 7.73, -988.97 1.97, -1000.42 0" stroke="#1e1e1e" stroke-width="1.5" fill="none"></path></g></g><mask id="mask-k1Qaph_cLKDKjzkKnPhBq"><rect x="0" y="0" fill="#fff" width="2657.297428405754" height="979.7974548339844"></rect><rect x="970.8840525512619" y="867.2974548339844" fill="#000" width="171.55984497070312" height="25" opacity="1"></rect></mask><g transform="translate(970.8840525512619 867.2974548339844) rotate(0 85.77992248535156 11.680872246365197)"><text x="85.77992248535156" y="0" font-family="Virgil, Segoe UI Emoji" font-size="20px" fill="#1e1e1e" text-anchor="middle" style="white-space: pre;" direction="ltr" dominant-baseline="text-before-edge">Results Returned</text></g><g mask="url(#mask-3ztTYCb_sJ2P0brtUJXs9)" stroke-linecap="round"><g transform="translate(554.7023966674727 926.7929992675781) rotate(0 -134.86492919921875 0)"><path d="M0 0 C-75.75 -1.73, -154.93 0.44, -269.73 0" stroke="#1e1e1e" stroke-width="1.5" fill="none" stroke-dasharray="8 9"></path></g><g transform="translate(554.7023966674727 926.7929992675781) rotate(0 -134.86492919921875 0)"><path d="M-241.55 -10.3 C-248.43 -8.38, -259.6 -2.68, -269.73 0" stroke="#1e1e1e" stroke-width="1.5" fill="none"></path></g><g transform="translate(554.7023966674727 926.7929992675781) rotate(0 -134.86492919921875 0)"><path d="M-241.52 10.22 C-248.24 6.3, -259.41 6.17, -269.73 0" stroke="#1e1e1e" stroke-width="1.5" fill="none"></path></g></g><mask id="mask-3ztTYCb_sJ2P0brtUJXs9"><rect x="0" y="0" fill="#fff" width="924.4322550659102" height="1026.7929992675781"></rect><rect x="373.33750561522675" y="889.2929992675781" fill="#000" width="92.99992370605469" height="75" opacity="1"></rect></mask><g transform="translate(373.33750561522675 889.2929992675781) rotate(0 46.499961853027344 37.19054261358929)"><text x="46.499961853027344" y="0" font-family="Virgil, Segoe UI Emoji" font-size="20px" fill="#1e1e1e" text-anchor="middle" style="white-space: pre;" direction="ltr" dominant-baseline="text-before-edge">Amazing</text><text x="46.499961853027344" y="25" font-family="Virgil, Segoe UI Emoji" font-size="20px" fill="#1e1e1e" text-anchor="middle" style="white-space: pre;" direction="ltr" dominant-baseline="text-before-edge">Results</text><text x="46.499961853027344" y="50" font-family="Virgil, Segoe UI Emoji" font-size="20px" fill="#1e1e1e" text-anchor="middle" style="white-space: pre;" direction="ltr" dominant-baseline="text-before-edge">Rendered!</text></g><g transform="translate(419.2901804809493 155.41683959960938) rotate(0 136.39988708496094 12.5)"><text x="136.39988708496094" y="0" font-family="Virgil, Segoe UI Emoji" font-size="20px" fill="#1e1e1e" text-anchor="middle" style="white-space: pre;" direction="ltr" dominant-baseline="text-before-edge">Nuxt Single Page App (SPA)</text></g><g stroke-opacity="0.5" fill-opacity="0.5" stroke-linecap="round" transform="translate(23.817020690910226 359.5467834472656) rotate(0 14.812149047851562 139.330078125)"><path d="M0 0 C12.57 -0.34, 23.59 1.6, 29.62 0 M0 0 C9.94 0.5, 18.04 0.06, 29.62 0 M29.62 0 C30.52 82.29, 30.77 166.2, 29.62 278.66 M29.62 0 C28.4 84.27, 27.53 168.24, 29.62 278.66 M29.62 278.66 C24.21 279.01, 18.29 279.61, 0 278.66 M29.62 278.66 C19.54 279.15, 10.13 279.49, 0 278.66 M0 278.66 C-0.23 213.14, -2.59 149.27, 0 0 M0 278.66 C-1.17 188.81, -2.59 97.35, 0 0" stroke="#1e1e1e" stroke-width="1" fill="none"></path></g><g stroke-opacity="0.5" fill-opacity="0.5" stroke-linecap="round" transform="translate(269.4953654174727 619.8291625976562) rotate(0 15.366943359375 161.49972534179688)"><path d="M0 0 C12.76 0.77, 24.73 -0.44, 30.73 0 M0 0 C7.65 -0.17, 14.5 1.01, 30.73 0 M30.73 0 C31.56 105.96, 31.48 214.61, 30.73 323 M30.73 0 C32.85 92.51, 31.74 185.84, 30.73 323 M30.73 323 C23.98 324.5, 13.58 322.21, 0 323 M30.73 323 C19.4 323.41, 10.27 323.5, 0 323 M0 323 C0.25 218.14, -0.68 114.76, 0 0 M0 323 C-2.07 239.04, -2.28 153.85, 0 0" stroke="#1e1e1e" stroke-width="1" fill="none"></path></g><g stroke-opacity="0.5" fill-opacity="0.5" stroke-linecap="round" transform="translate(542.0243571166915 617.12255859375) rotate(0 11.903350830078125 164.20632934570312)"><path d="M0 0 C8.66 -1.69, 14.39 -1.75, 23.81 0 M0 0 C8 -0.47, 16.56 -0.51, 23.81 0 M23.81 0 C23.49 121.85, 23.49 245.64, 23.81 328.41 M23.81 0 C24.41 100.59, 24.5 201.32, 23.81 328.41 M23.81 328.41 C20.38 329.55, 13.48 329.23, 0 328.41 M23.81 328.41 C17.82 327.78, 9.21 329.4, 0 328.41 M0 328.41 C-0.5 197.79, -0.61 68.76, 0 0 M0 328.41 C0.96 253.28, 1.51 177.44, 0 0" stroke="#1e1e1e" stroke-width="1" fill="none"></path></g><g stroke-opacity="0.5" fill-opacity="0.5" stroke-linecap="round" transform="translate(889.0837443237227 489.2420349121094) rotate(0 10.6639404296875 134.32183837890625)"><path d="M0 0 C4.18 0.41, 8.05 1.58, 21.33 0 M0 0 C3.89 0.31, 9.06 -0.87, 21.33 0 M21.33 0 C19.51 83.58, 21.45 167.9, 21.33 268.64 M21.33 0 C21.39 62, 21.66 125, 21.33 268.64 M21.33 268.64 C15.15 269.09, 8.21 267.87, 0 268.64 M21.33 268.64 C15.92 268.85, 10.64 269.26, 0 268.64 M0 268.64 C-0.28 189.99, -1.65 109.32, 0 0 M0 268.64 C-0.87 187.36, -0.12 107.06, 0 0" stroke="#1e1e1e" stroke-width="1" fill="none"></path></g><g stroke-opacity="0.5" fill-opacity="0.5" stroke-linecap="round" transform="translate(1187.1021769409103 778.7705383300781) rotate(0 8.85125732421875 61.04296875)"><path d="M0 0 C5.19 -0.56, 10.12 0.62, 17.7 0 M0 0 C4.52 -0.36, 8.97 -0.39, 17.7 0 M17.7 0 C19.13 23.79, 18.86 49.62, 17.7 122.09 M17.7 0 C17.87 42.03, 17.4 83.52, 17.7 122.09 M17.7 122.09 C11.74 122.68, 6.59 121.15, 0 122.09 M17.7 122.09 C10.67 121.92, 3.99 122.16, 0 122.09 M0 122.09 C-0.63 77.05, -1 30.36, 0 0 M0 122.09 C-0.4 78.04, -0.24 35.22, 0 0" stroke="#1e1e1e" stroke-width="1" fill="none"></path></g><g stroke-opacity="0.5" fill-opacity="0.5" stroke-linecap="round" transform="translate(1542.4246867065353 377.2487487792969) rotate(0 12.8746337890625 258.1269226074219)"><path d="M0 0 C8.69 -1.34, 13 1.57, 25.75 0 M0 0 C6.44 0.55, 13.45 0.32, 25.75 0 M25.75 0 C24.98 105.88, 24.27 210.99, 25.75 516.25 M25.75 0 C24.54 122.91, 24.47 246.03, 25.75 516.25 M25.75 516.25 C17.64 515.54, 12.78 516.3, 0 516.25 M25.75 516.25 C18.07 515.32, 10.86 516.49, 0 516.25 M0 516.25 C-0.05 345.39, 0.75 174.78, 0 0 M0 516.25 C-0.49 347.6, -0.7 178.25, 0 0" stroke="#1e1e1e" stroke-width="1" fill="none"></path></g><g transform="translate(876.9083598022384 153.35604858398438) rotate(0 164.38986206054688 12.5)"><text x="164.38986206054688" y="0" font-family="Virgil, Segoe UI Emoji" font-size="20px" fill="#1e1e1e" text-anchor="middle" style="white-space: pre;" direction="ltr" dominant-baseline="text-before-edge">Nuxt Server Side Rendering (SSR)</text></g><g transform="translate(403.4397013549727 10) rotate(0 468.701904296875 22.5)"><text x="468.701904296875" y="0" font-family="Virgil, Segoe UI Emoji" font-size="36px" fill="#1e1e1e" text-anchor="middle" style="white-space: pre;" direction="ltr" dominant-baseline="text-before-edge">Astra DB + Vector Search CineMatch Demo Solution</text></g><g transform="translate(700.431721008293 75.98880004882812) rotate(0 153.2198944091797 12.5)"><text x="153.2198944091797" y="0" font-family="Virgil, Segoe UI Emoji" font-size="20px" fill="#1e1e1e" text-anchor="middle" style="white-space: pre;" direction="ltr" dominant-baseline="text-before-edge">Ren Ugarte - November 2023</text></g></svg>